<?xml version="1.0" encoding="utf-8"?>
<!-- Generator: Adobe Illustrator 19.0.0, SVG Export Plug-In . SVG Version: 6.00 Build 0)  -->
<svg version="1.1" id="Warstwa_1" xmlns="http://www.w3.org/2000/svg" xmlns:xlink="http://www.w3.org/1999/xlink" x="0px" y="0px"
	 viewBox="0 0 3047.4 3047.4" style="enable-background:new 0 0 3047.4 3047.4;" xml:space="preserve">
<style type="text/css">
	.st0{display:none;}
	.st1{display:inline;}
	.st2{display:inline;clip-path:url(#SVGID_2_);}
	.st3{fill:#055290;}
	.st4{fill:#2A62AB;}
	.st5{fill:#5A69AD;}
	.st6{fill:#9891C3;}
	.st7{fill:#C09DC5;}
	.st8{fill:#E7A3C6;}
	.st9{fill:none;stroke:#000000;stroke-width:0.54;stroke-linecap:round;stroke-linejoin:round;stroke-miterlimit:10;}
	.st10{fill:none;}
	.st11{display:inline;fill:#2A62AB;}
	.st12{display:inline;fill:#9891C3;}
	.st13{clip-path:url(#SVGID_5_);}
	
		.st14{clip-path:url(#SVGID_7_);fill:none;stroke:#000000;stroke-width:0.54;stroke-linecap:round;stroke-linejoin:round;stroke-miterlimit:10;}
	.st15{clip-path:url(#SVGID_9_);}
</style>
<g class="st0">
	<defs>
		<polyline id="SVGID_1_" points="2693.5,2537.1 2693.5,181.6 312.7,181.6 312.7,2537.1 2693.5,2537.1 		"/>
	</defs>
	<clipPath id="SVGID_2_" class="st1">
		<use xlink:href="#SVGID_1_"  style="overflow:visible;"/>
	</clipPath>
	<g id="XMLID_1_" class="st2">
		<g>
			<path class="st3" d="M1151.8,934.5l-7.1,1v-0.1c-89.1-57.8-206.4-45.2-281.2,30.2v0h-7.1v0c-6.8-0.4-12.7-4.8-15.1-11.2v0
				l-15.8-42.7l-0.1,0c-1-2.6-2.1-5.1-3.4-7.5c0,0,0,0,0,0c-15.8-29.5-49.6-44.6-82.2-36.7c-32.6,7.9-55.7,36.9-56.1,70.4h0
				l-0.1,60.6h0c-0.5,29-15.8,55.7-40.4,70.9v0c-21.6,15.2-48.9,19.9-74.3,12.9c60.1,38.9,139.3,29.7,188.9-21.8h0
				c1.2-1.3,2.3-2.6,3.3-4l0,0l25-34.8l-0.1-0.1c10.8-13.2,28.3-18.7,44.7-14.2l0,0c-36.5,60.4-41.3,131.6-18.4,193.6l-14.5,14.2
				l-14.4,14.4l-14.2,14.6l-14,14.8l-13.8,14.9l-13.6,15.1l-13.4,15.2l-13.3,15.5l-13,15.7l-12.8,15.7l-9.6-2.7l-14.4-4.2l-14.3-4.5
				l-14.3-4.7l-14.2-4.9l-14.2-5.2l-14-5.4l-13.9-5.6l-13.9-5.9l-13.7-6l0,0c-3.8-0.5-7.7,0.3-11.1,2.2
				c0-535.2,423-974.8,957.8-995.4c80.9-3.1,160.1,3.5,236.2,18.9l0,0.2l-15.8,9.4l-15.7,9.5l-15.5,9.7l-15.4,10l-15.3,10.1
				l-15.1,10.4l-15.1,10.5l-14.9,10.7l-14.8,10.9l-14.6,11.2l-14.5,11.3l-14.3,11.5l-14.2,11.6l-14,11.9L1499,489l-13.7,12.2
				l-13.6,12.4l-13.4,12.5l-13.2,12.8l-13,12.9l-12.9,13.1l-12.7,13.3l-12.5,13.4l-12.4,13.6l-12.2,13.7l-12,13.9l-11.8,14
				l-11.6,14.2l-11.5,14.3l-11.3,14.5l-11,14.6l-10.9,14.8l-10.7,14.9l-10.5,15.1l-10.3,15.2l-10.1,15.3l-9.9,15.5l-9.7,15.6
				l-9.5,15.7c-18.7,7.6-34,22.7-41.3,42.6l0,0c-0.9,2.6-1.7,5.2-2.3,7.9l0,0l-9.9,44.4l0,0C1163.7,928.1,1158.4,933.2,1151.8,934.5
				L1151.8,934.5z"/>
			<path class="st4" d="M1722,328.2l0-0.2c172,34.7,328.8,114,457.1,225.9l0,0l-16.9,9.2l-16.9,9.4l-16.7,9.6l-16.6,9.8l-16.5,10
				l-16.3,10.3l-16.3,10.4l-16.1,10.6l-16,10.9l-15.8,11l-15.7,11.3l-15.5,11.4l-15.4,11.6l-15.2,11.8l-15.1,12.1l-14.9,12.2
				l-14.8,12.4l-14.6,12.5l-8.8,7.8l-18.2,0.4l-19.4,0.7l-19.4,0.9l-19.4,1.1l-19.4,1.4l-19.4,1.6l-19.4,1.9l-19.3,2.1l-19.4,2.3
				l-19.3,2.6l-19.3,2.8l-19.3,3l-19.2,3.3l-19.1,3.5l-19.1,3.7l-19,4l-19,4.2l-19,4.5l-18.9,4.7l-18.8,4.9l-18.8,5.2l-18.7,5.3
				l-18.7,5.6l-18.6,5.8l-18.5,6.1l-18.4,6.3l-18.4,6.5l-18.3,6.8l-18.2,7l-18.1,7.2l-0.1,0c-8.4-28.3-33.1-49.3-63.1-52.3
				c-12.2-1.2-24.2,0.6-35,5l9.5-15.7l9.7-15.6l9.9-15.5l10.1-15.3l10.3-15.2l10.5-15.1l10.7-14.9l10.9-14.8l11-14.6l11.3-14.5
				l11.5-14.3l11.6-14.2l11.8-14l12-13.9l12.2-13.7l12.4-13.6l12.5-13.4l12.7-13.3l12.9-13.1l13-12.9l13.2-12.8l13.4-12.5l13.6-12.4
				L1499,489l13.9-12.1l14-11.9l14.2-11.6l14.3-11.5l14.5-11.3l14.6-11.2l14.8-10.9l14.9-10.7l15.1-10.5l15.1-10.4l15.3-10.1
				l15.4-10l15.5-9.7l15.7-9.5L1722,328.2z"/>
			<path class="st5" d="M2179.1,553.8L2179.1,553.8c90.9,79.3,167.4,174.9,224.8,282.7l-0.2,0.1l-18.5-5.9l-18.6-5.7l-18.7-5.5
				l-18.7-5.2l-18.8-5l-18.8-4.8l-19-4.6l-19-4.4l-19.1-4.1l-19.1-3.8l-19.1-3.7l-19.1-3.4l-19.3-3.2l-19.3-2.9l-19.3-2.6l-19.3-2.5
				l-19.4-2.2l-19.4-2l-19.4-1.7l-19.4-1.4l-19.4-1.3l-19.5-1l-19.4-0.8l-19.4-0.5l-19.5-0.3l-19.4-0.1l-19.5,0.2l-1.3,0l8.8-7.8
				l14.6-12.5l14.8-12.4l14.9-12.2l15.1-12.1l15.2-11.8l15.4-11.6l15.5-11.4l15.7-11.3l15.8-11l16-10.9l16.1-10.6l16.3-10.4
				l16.3-10.3l16.5-10l16.6-9.8l16.7-9.6l16.9-9.4L2179.1,553.8z"/>
			<path class="st6" d="M2495.2,1226.7L2495.2,1226.7l-16.3,7.2l-16.4,7l-16.6,6.7l-16.6,6.5l-16.7,6.2l-16.8,6.1l-16.9,5.9
				l-16.9,5.6l-17,5.4l-17.1,5.2l-17.1,5l-17.2,4.8l-17.2,4.5l-17.3,4.4l-2.6,0.6v0l-15.2-9.7l-15.3-9.5l-15.5-9.3l-15.6-9.1
				l-15.7-8.8l-15.9-8.6c56.9-40.6,94-107.2,94-182.5c0-123.8-100.3-224.1-224.1-224.1s-224.1,100.3-224.1,224.1
				c0,21.6,3.1,42.6,8.8,62.4l-16.8-3l-16.9-2.7l-16.9-2.5l-17-2.2l-17-2l-17-1.7l-17-1.5l-17.1-1.3l-17.1-1l-17.1-0.8l-17.1-0.5
				l-17.2-0.3l-17.1-0.1l-7.5,0.1l6.5-10.8l10.3-16.4l10.4-16.2l10.7-16.1l10.8-16l11-15.8l11.2-15.7l11.4-15.5l11.6-15.4l11.8-15.2
				l12-15.1l12.2-14.9l12.4-14.8l12.5-14.6l12.8-14.5l12.9-14.3l13.1-14.2l13.3-14l13.5-13.8l13.6-13.7l13.8-13.5l14-13.3l14.2-13.1
				l14.3-13l5.7-5l1.3,0l19.5-0.2l19.4,0.1l19.5,0.3l19.4,0.5l19.4,0.8l19.5,1l19.4,1.3l19.4,1.4l19.4,1.7l19.4,2l19.4,2.2l19.3,2.5
				l19.3,2.6l19.3,2.9l19.3,3.2l19.1,3.4l19.1,3.7l19.1,3.8l19.1,4.1l19,4.4l19,4.6l18.8,4.8l18.8,5l18.7,5.2l18.7,5.5l18.6,5.7
				l18.5,5.9l0.2-0.1c62.7,117.7,102.6,249.9,113.5,391.1l-0.1,0C2510.4,1224.3,2502.4,1224,2495.2,1226.7z"/>
			<path class="st5" d="M1258.6,1011.5c1.2,1.3,2.5,2.4,3.8,3.5l0,0c56.2,44.2,135.9,42.4,190.1-4.3c-24.3,10.5-51.9,9.6-75.4-2.5
				l0,0.1c-26.5-11.7-45.2-36.1-49.8-64.7l0.1,0l-8.4-60l-0.1,0c-0.5-3.3-1.2-6.6-2.2-9.7l0.1,0l18.1-7.2l18.2-7l18.3-6.8l18.4-6.5
				l18.4-6.3l18.5-6.1l18.6-5.8l18.7-5.6l18.7-5.3l18.8-5.2l18.8-4.9l18.9-4.7l19-4.5l19-4.2l19-4l19.1-3.7l19.1-3.5l19.2-3.3
				l19.3-3l19.3-2.8l19.3-2.6l19.4-2.3l19.3-2.1l19.4-1.9l19.4-1.6l19.4-1.4l19.4-1.1l19.4-0.9l19.4-0.7l18.2-0.4l-5.7,5l-14.3,13
				l-14.2,13.1l-14,13.3l-13.8,13.5l-13.6,13.7l-13.5,13.8l-13.3,14l-13.1,14.2l-12.9,14.3l-12.8,14.5l-12.5,14.6l-12.4,14.8
				l-12.2,14.9l-12,15.1l-11.8,15.2l-11.6,15.4l-11.4,15.5l-11.2,15.7l-11,15.8l-10.8,16l-10.7,16.1l-10.4,16.2l-10.3,16.4
				l-6.5,10.8l-9.6,0.1l-17.1,0.4l-17.1,0.7l-17.1,1l-17.1,1.1l-17,1.4l-17.1,1.6l-17,1.9l-17,2.1l-16.9,2.4l-16.9,2.6l-16.9,2.8
				l-16.8,3.1l-16.8,3.4l-16.8,3.6l-16.7,3.8l-16.6,4.1l-16.6,4.3l-16.6,4.5l-16.4,4.8l-16.4,5c13.8-68.6-4.8-142.3-55.5-197l0,0
				c14.7-4.7,30.8-1.1,42.2,9.4l0,0.1L1258.6,1011.5L1258.6,1011.5z"/>
			<path class="st7" d="M1588.9,1113.2l7.5-0.1l17.1,0.1l17.2,0.3l17.1,0.5l17.1,0.8l17.1,1l17.1,1.3l17,1.5l17,1.7l17,2l17,2.2
				l16.9,2.5l16.9,2.7l16.8,3c27,93.4,113.2,161.8,215.3,161.8c48.5,0,93.4-15.4,130.1-41.6l15.9,8.6l15.7,8.8l15.6,9.1l15.5,9.3
				l15.3,9.5l15.2,9.7v0l-14.8,3.5l-17.5,3.9l-17.5,3.7l-17.5,3.4l-17.6,3.2l-17.6,3l-17.6,2.8l-17.7,2.5l-17.6,2.3l-17.8,2.1
				l-17.8,1.8l-17.8,1.6l0,0c-1.9,0.2-3.9,0.2-5.8,0.2v0.1l-17.6-0.4l-17.6-0.6l-17.6-0.8l-17.6-1.1l-17.6-1.4l-17.6-1.6l-17.6-1.9
				l-17.5-2.2l-17.5-2.4l-17.5-2.6l-17.5-2.9l-13.3-3.2l-13.3-3.4l-13.2-3.6l-13.2-3.9l-13.1-4.1l-13-4.3l-13-4.5l-12.9-4.7l-12.8-5
				l-12.7-5.2l-12.7-5.4l-12.5-5.6l-12.5-5.8l-12.3-6.1l-12.2-6.2l-12.1-6.4l-12-6.7l-11.9-6.8l-11.8-7.1l-11.6-7.3l-11.5-7.4
				l-37.8-25.2l9.2-16.9l9.4-16.9l9.6-16.7l9.8-16.6L1588.9,1113.2z"/>
			<path class="st6" d="M1579.3,1113.3l9.6-0.1l-3.5,5.7l-9.8,16.6l-9.6,16.7l-9.4,16.9l-9.2,16.9l-12.2-8.1l0,0
				c-9.1-6.1-21-5.8-29.8,0.8l0,0l-15.2,11.4l-12,9.1l-12.1,8.9l-12.2,8.7l-12.4,8.5l-12.5,8.3l-12.7,8.1l-12.8,7.9l-12.9,7.7
				l-13,7.5l-13.1,7.3l-13.3,7l-13.4,6.8l-13.5,6.7l-13.6,6.4l-13.7,6.2l-13.8,5.9l-13.9,5.8l-14,5.5l-14,5.3l-14.2,5l-14.2,4.8
				l-14.3,4.6l-14.4,4.4l-14.4,4.1l-14.5,3.9l-14.6,3.7l-14.6,3.4l-14.6,3.2l-14.7,2.9l-14.8,2.8l-14.8,2.5l-14.9,2.2l-14.9,2
				l-7.9,1l2-15.3l2.2-15.3c57.9-2.9,114.5-28.2,155.9-74.5c27.4-30.7,44.9-67,52.6-104.9l16.4-5l16.4-4.8l16.6-4.5l16.6-4.3
				l16.6-4.1l16.7-3.8l16.8-3.6l16.8-3.4l16.8-3.1l16.9-2.8l16.9-2.6l16.9-2.4l17-2.1l17-1.9l17.1-1.6l17-1.4l17.1-1.1l17.1-1
				l17.1-0.7L1579.3,1113.3z"/>
			<path class="st4" d="M798,1215.4l14.5-14.2c14.7,39.7,40.7,75.7,77,102.6c10.4,7.7,21.3,14.3,32.4,20l-13.1,9.2l-13,9.4l-13,9.5
				l-12.7,9.7l-12.7,9.8l-12.5,10l-2.1-0.2l-14.9-1.4L813,1378l-14.9-1.9l-14.9-2.1l-14.8-2.3l-14.8-2.6l-14.7-2.8l-14.7-3.1
				l-14.7-3.3l-14.6-3.5l-14.5-3.8l-4.9-1.4l12.8-15.7l13-15.7l13.3-15.5l13.4-15.2l13.6-15.1l13.8-14.9l14-14.8l14.2-14.6
				L798,1215.4z"/>
			<path class="st7" d="M1750.9,1432.7c25.5,14.6,46.4,35.7,60.7,60.9c-115.8-47.5-238.9-73.6-363.3-77.3l2.2-6.6l6.3-18.1l6.5-17.9
				l6.8-17.9l7-17.8l7.2-17.8l7.4-17.6l7.7-17.6l7.9-17.4l8-17.3l8.3-17.2l0.7-1l10.4,12.1l10.6,11.9l10.8,11.8l11,11.6l11.1,11.5
				l11.3,11.3l11.5,11.2l11.6,10.9l11.8,10.8l11.9,10.6l12.2,10.4l12.2,10.2l12.5,10l12.6,9.8l12.7,9.7l12.9,9.5l13,9.2l13.1,9.1
				L1750.9,1432.7L1750.9,1432.7z"/>
			<path class="st6" d="M1523.5,1233.1l-8.3,17.2l-8,17.3l-7.9,17.4l-7.7,17.6l-7.4,17.6l-7.2,17.8l-7,17.8l-6.8,17.9l-6.5,17.9
				l-6.3,18.1l-2.2,6.6c-36.3-1.1-72.8-0.3-109.2,2.5l6.2-4.6l11.9-9.3l11.8-9.4l11.6-9.7l11.4-9.8l11.3-10l11-10.2l10.9-10.4
				l10.7-10.6l10.6-10.7l10.4-10.9l10.2-11l10-11.3l9.8-11.4l9.6-11.6l9.5-11.8l9.2-11.9L1523.5,1233.1z"/>
			<path class="st6" d="M2520,1276.6L2520,1276.6c2.3,80.9-5.3,161.1-22.2,239l-11.7-12.9l-11.8-12.8l-12.1-12.5l-12.2-12.4
				l-12.4-12.2l-12.5-12.1l-12.7-11.8l-12.9-11.7l-13.1-11.5l-13.3-11.3l-13.4-11.1l-13.6-10.9l80.5-40.6l88.7-52.7l0-0.1
				C2516.9,1278.3,2518.5,1277.6,2520,1276.6z"/>
			<path class="st5" d="M908.8,1332.9l13.1-9.2c35.3,17.8,73.9,25.6,112,23.6l-2.2,15.3l-2,15.3l-7,0.8l-14.9,1.5l-15,1.3l-14.9,1.1
				l-15,0.8l-15.1,0.5l-15,0.3l-15,0.1l-15-0.2l-15-0.4l-15-0.7l-15-0.9l-12.9-1l12.5-10l12.7-9.8l12.7-9.7l13-9.5L908.8,1332.9z"/>
			<path class="st3" d="M528.6,1336.3l12.4,8.6l12.5,8.4l12.7,8.2l12.8,8l12.9,7.9l13,7.6l13.2,7.4l13.3,7.2l5,2.6l0,0l-11,15.2
				l-10.9,15.3l-10.7,15.4l-10.4,15.5l-10.3,15.7l-10.1,15.8l-9.9,15.9l-9.8,16l0,0C539,1465.2,530.6,1401.4,528.6,1336.3
				L528.6,1336.3z"/>
			<path class="st7" d="M2243.8,1424.1l102.4-51.6l13.6,10.9l13.4,11.1l13.3,11.3l13.1,11.5l12.9,11.7l12.7,11.8l12.5,12.1
				l12.4,12.2l12.2,12.4l12.1,12.5l11.8,12.8l11.7,12.9c-31.8,146.7-96.5,285.1-190.3,404.5l0,0c-40.3-67.3-88.1-129.7-142.5-186.2
				l-2.6-7.2l-4.3-12.3l-4-12.4l-3.8-12.4l-3.5-12.5l-3.3-12.6l-2-7.8l-1.7-7.9l-1.6-7.9l-1.3-8l-1.1-8l-0.8-8l-0.6-8l-0.4-8.1
				l-0.2-8.1l0.1-8.1l0.3-8l0.5-8.1l0.8-8l1-8l1.3-8l-0.1,0C2151.7,1489.5,2191.2,1444.8,2243.8,1424.1L2243.8,1424.1z"/>
			<path class="st4" d="M636.3,1402.3l8.4,4.4l13.5,6.8l13.6,6.6l13.7,6.4l13.7,6.2l13.9,5.9l14,5.7l14,5.5l14.2,5.3l4.9,1.7
				l-11.6,11.6l-11.5,11.8l-11.3,11.9l-11.2,12.1l-11,12.2l-10.9,12.4l-10.7,12.5l-10.5,12.7l-10.3,12.8l-10.2,13l-10,13.1
				l-9.8,13.3l-9.6,13.4l-9.4,13.5l-9.2,13.6l-9.1,13.7l-0.1,0c-16.6-43.3-30.2-87.9-40.6-133.5l0,0l9.8-16l9.9-15.9l10.1-15.8
				l10.3-15.7l10.4-15.5l10.7-15.4l10.9-15.3L636.3,1402.3L636.3,1402.3z"/>
			<path class="st7" d="M1298.9,1829.3L1298.9,1829.3l-41.4-266.2l0,0c-10.5-47.5,10-96.5,51.2-122.4l0,0l12.3-8.6l12.2-8.9l5.9-4.4
				c36.4-2.8,72.9-3.6,109.2-2.5l-3.9,11.5l-5.8,18.2l-5.6,18.2l-5.4,18.4l-5.2,18.4l-4.9,18.5l-4.7,18.5l-4.4,18.6l-4.3,18.6
				l-4,18.7l-3.7,18.8l-3.5,18.8l-3.3,18.8l-3.1,18.8l-2.8,18.9l-2.6,19l-2.3,19l-2.2,19l-1.9,19l-1.7,19.1l-1.4,19.1l-1.2,19.1
				l-0.9,19.1l-0.7,19.1l-0.4,19.1l-0.2,19.1l0.1,19.1l0.2,19.1l0.5,19.1l0.8,19.1l1,19.1l1.2,19.1l1.4,19l1.7,19.1l1.9,19l2.2,19
				l2.4,19l2.6,18.9l2.9,19l3.1,18.8l3.3,18.8l3.6,18.8l3.8,18.7l4,18.7l4.3,18.6l4.5,18.6l4.7,18.5l0,0
				c-72.6-7.8-145-23.6-215.9-47.8v0l-9.1-16.3l-8.9-16.4l-8.6-16.6l-8.5-16.7l-8.2-16.8l-8-16.9l-7.8-17l-7.5-17.1l-7.3-17.2
				l-7.1-17.3l-6.9-17.3l-6.6-17.5l-6.4-17.6l-6.2-17.6l-5.9-17.8l-5.7-17.8l-5.5-17.9l-5.2-17.9l-5-18l-4.7-18.1l-4.6-18.2
				l-4.3-18.2l-4-18.2l76.5,6.1l53.2,196.2l0,0c1.3,6.2,6.8,10.6,13.1,10.6c6.3,0,11.8-4.4,13.1-10.6l0,0l22-188.2l38.1,3v0
				c9.2,0.7,18.3-2.8,24.6-9.6C1297.5,1847.7,1300.3,1838.4,1298.9,1829.3z"/>
			<path class="st8" d="M1444.5,1427.8l3.9-11.5c124.5,3.7,247.6,29.8,363.3,77.3c4.2,7.3,7.8,15,10.8,23l0.1,0l3.8,13.7l3.6,13.8
				l3.3,13.9l3.1,13.9l2.9,14l2.6,14l2.4,14l2.2,14.1l1.9,14.1l1.7,14.2l1.5,14.2l1.2,14.2l1,14.2l0.8,14.2l0.5,14.2l0.3,14.3
				l0.1,14.2l1,19.1l1.3,19.1l1.4,19.1l1.7,19.1l1.9,19.1l2.2,19.1l2.4,19l2.6,19l2.9,19l3.1,19l3.3,18.9l3.6,18.8l3.8,18.8l4,18.7
				c0,0,0,0,0,0.1c1.7,7.4,8.3,12.6,15.9,12.6c7.6,0,14.2-5.3,15.8-12.7l0,0l41.4-214.1l0,0c1.7-17.6,13-32.8,29.4-39.4
				c16.4-6.6,35.1-3.6,48.5,7.9l0,0l170.4,177.7l21.5,19.7l0,0c5.6,5.6,13.2,8.6,21.1,8.3l0,0.1c-216.9,234-528.5,346.3-836.4,313.4
				l0,0l-4.7-18.5l-4.5-18.6l-4.3-18.6l-4-18.7l-3.8-18.7l-3.6-18.8l-3.3-18.8l-3.1-18.8l-2.9-19l-2.6-18.9l-2.4-19l-2.2-19l-1.9-19
				l-1.7-19.1l-1.4-19l-1.2-19.1l-1-19.1l-0.8-19.1l-0.5-19.1l-0.2-19.1l-0.1-19.1l0.2-19.1l0.4-19.1l0.7-19.1l0.9-19.1l1.2-19.1
				l1.4-19.1l1.7-19.1l1.9-19l2.2-19l2.3-19l2.6-19l2.8-18.9l3.1-18.8l3.3-18.8l3.5-18.8l3.7-18.8l4-18.7l4.3-18.6l4.4-18.6
				l4.7-18.5l4.9-18.5l5.2-18.4l5.4-18.4l5.6-18.2L1444.5,1427.8z"/>
			<path class="st5" d="M760.2,1456.9l9.4,3.4l14.3,4.8l14.4,4.6l14.4,4.4l0,0c14.4,5.1,26.1,15.8,32.6,29.6
				c6.5,13.9,7.1,29.7,1.7,44l0,0l-11.4,46.7l0,0c-71.8,48.6-137.2,106-194.7,170.9c-17.7-33.8-33.4-68.8-47.1-104.6l0.1,0l9.1-13.7
				l9.2-13.6l9.4-13.5l9.6-13.4l9.8-13.3l10-13.1l10.2-13l10.3-12.8l10.5-12.7l10.7-12.5l10.9-12.4l11-12.2l11.2-12.1l11.3-11.9
				l11.5-11.8L760.2,1456.9z"/>
			<path class="st6" d="M817,1997.8c-1,2.1-1.6,4.2-1.9,6.4c-69.6-70.5-128.3-151.1-174.1-238.9c57.5-64.9,122.9-122.3,194.7-170.9
				l0,0l-48,196.5l0,0.1c-2.1,8.6-0.3,17.7,4.9,24.8c5.2,7.2,13.3,11.7,22.1,12.4l0,0l85.5,6.8L817,1997.8L817,1997.8z"/>
			<path class="st8" d="M2166.9,1738.9l-1.9-5c54.4,56.5,102.2,119,142.5,186.2l0,0c-8.3,10.6-16.8,21-25.6,31.2l-0.1,0
				c-0.4-5-2.1-9.8-4.9-13.9l0.1,0l-45.7-71.1l-7-11l-6.7-11.1l-6.5-11.2l-6.3-11.4l-6.1-11.5l-5.8-11.6l-5.6-11.7l-5.5-11.8
				l-5.2-11.9l-5-12L2166.9,1738.9z"/>
			<path class="st6" d="M1013.5,1844.1l37.1,2.9l4,18.2l4.3,18.2l4.6,18.2l4.7,18.1l5,18l5.2,17.9l5.5,17.9l5.7,17.8l5.9,17.8
				l6.2,17.6l6.4,17.6l6.6,17.5l6.9,17.3l7.1,17.3l7.3,17.2l7.5,17.1l7.8,17l8,16.9l8.2,16.8l8.5,16.7l8.6,16.6l8.9,16.4l9.1,16.3v0
				c-9.1-3.1-18.1-6.3-27.1-9.7c-125.3-46.9-237.2-117.3-331.2-205.1c5.6-1.1,10.8-4,14.6-8.7l0,0l7.7-8L1013.5,1844.1z"/>
		</g>
		<g>
			<path class="st9" d="M2515.3,1279C2515.3,1279,2515.3,1279,2515.3,1279c1.7-0.6,3.2-1.4,4.7-2.3"/>
			<path class="st9" d="M2517.4,1227.6c-6.9-3.3-15-3.7-22.2-0.9c0,0,0,0,0,0"/>
			<path class="st9" d="M539.1,1302.3c-3.8-0.5-7.7,0.3-11.1,2.2c0,0,0,0,0,0"/>
			<path class="st9" d="M2257.3,1070.5c0-123.8-100.3-224.1-224.1-224.1s-224.1,100.3-224.1,224.1c0,21.6,3.1,42.6,8.8,62.4
				c27,93.4,113.2,161.8,215.3,161.8c48.5,0,93.4-15.4,130.1-41.6C2220.2,1212.3,2257.3,1145.7,2257.3,1070.5"/>
			<path class="st9" d="M1144.7,935.5c-89.1-57.8-206.4-45.2-281.2,30.2"/>
			<path class="st9" d="M830.9,1007.6c-36.5,60.4-41.3,131.6-18.4,193.6c14.7,39.7,40.7,75.7,77,102.6c10.4,7.7,21.3,14.3,32.4,20
				c35.3,17.8,73.9,25.6,112,23.6c57.9-2.9,114.5-28.2,155.9-74.5c27.4-30.7,44.9-67,52.6-104.9c13.8-68.6-4.8-142.3-55.5-197"/>
			<polyline class="st9" points="2047.9,1341.6 2065.7,1339.9 2083.5,1338.1 2101.2,1336 2118.9,1333.8 2136.6,1331.2 
				2154.2,1328.5 2171.8,1325.5 2189.4,1322.3 2206.8,1318.9 2224.3,1315.2 2241.7,1311.3 2256.5,1307.9 2259.1,1307.2 
				2276.4,1302.9 2293.6,1298.4 2310.9,1293.6 2328,1288.6 2345.1,1283.4 2362,1278 2379,1272.3 2395.8,1266.4 2412.6,1260.3 
				2429.3,1254.1 2445.9,1247.5 2462.5,1240.8 2478.9,1233.9 2495.2,1226.7 			"/>
			<path class="st9" d="M2042.1,1341.7c1.9,0,3.9-0.1,5.8-0.2"/>
			<polyline class="st9" points="1535.4,1177.9 1547.6,1186.1 1585.4,1211.3 1596.9,1218.7 1608.6,1226 1620.3,1233.1 
				1632.2,1239.9 1644.2,1246.6 1656.3,1253 1668.6,1259.2 1680.9,1265.3 1693.3,1271.1 1705.8,1276.7 1718.5,1282.1 1731.1,1287.3 
				1743.9,1292.2 1756.8,1297 1769.8,1301.5 1782.8,1305.8 1795.9,1309.9 1809.1,1313.8 1822.3,1317.4 1835.6,1320.8 1848.9,1324 
				1866.4,1326.9 1883.8,1329.5 1901.3,1331.9 1918.8,1334.1 1936.4,1335.9 1954,1337.5 1971.6,1338.9 1989.2,1340 2006.8,1340.8 
				2024.5,1341.4 2042.1,1341.8 2042.1,1341.8 			"/>
			<polyline class="st9" points="1524.3,1232.2 1534.6,1244.3 1545.3,1256.2 1556.1,1268.1 1567,1279.7 1578.1,1291.2 
				1589.5,1302.4 1600.9,1313.6 1612.6,1324.5 1624.4,1335.3 1636.3,1345.9 1648.5,1356.3 1660.8,1366.5 1673.2,1376.5 
				1685.8,1386.4 1698.6,1396 1711.5,1405.5 1724.5,1414.8 1737.6,1423.8 1750.9,1432.7 			"/>
			<path class="st9" d="M1822.5,1516.7c-3-8-6.7-15.7-10.8-23c-14.3-25.2-35.3-46.3-60.7-60.9c0,0,0,0-0.1,0"/>
			<polyline class="st9" points="1890.7,2021.7 1886.7,2002.9 1882.9,1984.2 1879.3,1965.3 1876,1946.4 1872.9,1927.5 1870,1908.5 
				1867.3,1889.5 1864.9,1870.5 1862.8,1851.4 1860.9,1832.3 1859.1,1813.2 1857.7,1794 1856.4,1774.9 1855.5,1755.7 1855.4,1741.5 
				1855.1,1727.2 1854.6,1713 1853.8,1698.8 1852.8,1684.6 1851.6,1670.4 1850.1,1656.3 1848.4,1642.1 1846.5,1628 1844.3,1613.9 
				1841.9,1599.9 1839.3,1585.9 1836.4,1571.9 1833.3,1558 1830,1544.2 1826.4,1530.4 1822.6,1516.7 			"/>
			<path class="st9" d="M1890.7,2021.7C1890.7,2021.7,1890.7,2021.7,1890.7,2021.7c1.7,7.5,8.3,12.7,15.9,12.7
				c7.6,0,14.2-5.3,15.8-12.7c0,0,0,0,0,0"/>
			<line class="st9" x1="1922.5" y1="2021.6" x2="1963.9" y2="1807.5"/>
			<path class="st9" d="M2041.7,1776.1c-13.4-11.5-32.1-14.5-48.5-7.9c-16.4,6.6-27.7,21.8-29.4,39.4"/>
			<polyline class="st9" points="2041.8,1776.1 2212.2,1953.7 2233.7,1973.4 			"/>
			<path class="st9" d="M2233.7,1973.4C2233.7,1973.4,2233.7,1973.4,2233.7,1973.4c5.6,5.6,13.2,8.6,21.1,8.3"/>
			<path class="st9" d="M2281.8,1951.3c-0.4-5-2.1-9.8-4.9-13.9c0,0,0,0,0-0.1"/>
			<polyline class="st9" points="2277,1937.4 2231.3,1866.3 2224.3,1855.2 2217.6,1844.1 2211.1,1832.9 2204.8,1821.5 2198.7,1810 
				2192.8,1798.5 2187.2,1786.8 2181.7,1774.9 2176.6,1763 2171.6,1751 2166.9,1738.9 2165,1733.9 2162.4,1726.7 2158.1,1714.4 
				2154.1,1702 2150.2,1689.6 2146.7,1677.1 2143.4,1664.5 2141.4,1656.7 2139.6,1648.8 2138.1,1640.9 2136.7,1632.9 2135.7,1624.9 
				2134.8,1616.8 2134.2,1608.8 2133.9,1600.7 2133.7,1592.6 2133.8,1584.5 2134.1,1576.5 2134.6,1568.4 2135.4,1560.3 
				2136.4,1552.3 2137.7,1544.3 			"/>
			<path class="st9" d="M2243.7,1424c-52.5,20.8-92,65.5-106.1,120.3"/>
			<polyline class="st9" points="2243.8,1424.1 2346.1,1372.4 2426.7,1331.8 2515.3,1279 			"/>
			<line class="st9" x1="1257.5" y1="1563.1" x2="1298.9" y2="1829.3"/>
			<path class="st9" d="M1266.6,1864.1C1266.6,1864.1,1266.6,1864.1,1266.6,1864.1c9.2,0.7,18.3-2.8,24.6-9.6
				c6.3-6.8,9.1-16,7.7-25.2c0,0,0,0,0-0.1"/>
			<polyline class="st9" points="1266.6,1864.1 1228.5,1861.1 1206.5,2049.3 			"/>
			<path class="st9" d="M1180.2,2049.3c1.3,6.2,6.8,10.6,13.1,10.6c6.3,0,11.8-4.4,13.1-10.6v0"/>
			<polyline class="st9" points="1180.2,2049.3 1180.2,2049.3 1127.1,1853.1 			"/>
			<polyline class="st9" points="1013.5,1844.1 866.4,2015.8 858.7,2023.8 			"/>
			<path class="st9" d="M817,1997.8C817,1997.8,817,1997.8,817,1997.8c-1,2.1-1.6,4.2-2,6.4c-1.6,9.7,2.7,19.6,11.4,25
				c5.5,3.4,11.8,4.4,17.8,3.3c5.6-1.1,10.8-4,14.6-8.7"/>
			<polyline class="st9" points="817,1997.8 900.2,1835.1 814.7,1828.3 			"/>
			<path class="st9" d="M787.6,1791c-2.1,8.6-0.3,17.7,4.9,24.8c5.2,7.2,13.3,11.7,22.1,12.4"/>
			<polyline class="st9" points="787.6,1791 787.7,1790.9 835.6,1594.4 847,1547.7 			"/>
			<path class="st9" d="M847,1547.7c5.4-14.3,4.8-30.2-1.7-44c-6.4-13.8-18.2-24.5-32.6-29.6c0,0,0,0,0,0"/>
			<polyline class="st9" points="528.6,1336.3 541,1344.9 553.5,1353.3 566.2,1361.5 579,1369.6 591.9,1377.4 604.9,1385.1 
				618.1,1392.5 631.3,1399.7 636.3,1402.3 644.7,1406.7 658.2,1413.6 671.8,1420.2 685.5,1426.5 699.3,1432.7 713.2,1438.6 
				727.2,1444.3 741.2,1449.9 755.4,1455.1 760.2,1456.9 769.6,1460.2 783.9,1465 798.3,1469.7 812.7,1474.1 			"/>
			<polyline class="st9" points="539.1,1302.3 552.9,1308.3 566.7,1314.2 580.6,1319.8 594.6,1325.2 608.8,1330.3 622.9,1335.3 
				637.2,1339.9 651.6,1344.4 666,1348.6 675.5,1351.3 680.4,1352.7 694.9,1356.4 709.5,1360 724.2,1363.3 738.9,1366.3 
				753.6,1369.2 768.4,1371.7 783.3,1374.1 798.1,1376.2 813,1378 828,1379.7 842.9,1381 845,1381.2 857.9,1382.2 872.9,1383.1 
				887.9,1383.7 902.9,1384.2 917.9,1384.3 932.9,1384.3 947.9,1384 963,1383.4 978,1382.7 992.9,1381.6 1007.9,1380.3 
				1022.8,1378.8 1029.8,1378 1037.7,1377 1052.6,1375 1067.5,1372.8 1082.2,1370.4 1097.1,1367.6 1111.8,1364.7 1126.4,1361.5 
				1141,1358.1 1155.6,1354.4 1170.1,1350.5 1184.5,1346.4 1198.9,1342 1213.2,1337.4 1227.4,1332.6 1241.6,1327.5 1255.6,1322.2 
				1269.6,1316.7 1283.5,1311 1297.3,1305 1311,1298.8 1324.5,1292.5 1338,1285.8 1351.4,1279 1364.7,1272 1377.8,1264.7 
				1390.8,1257.2 1403.7,1249.5 1416.5,1241.7 1429.2,1233.6 1441.6,1225.3 1454.1,1216.8 1466.3,1208.1 1478.4,1199.2 
				1490.4,1190.1 			"/>
			<polyline class="st9" points="1308.7,1440.7 1321,1432.1 1333.2,1423.2 1339.1,1418.8 1345.3,1414.2 1357.2,1404.9 
				1368.9,1395.5 1380.5,1385.8 1391.9,1376.1 1403.2,1366 1414.2,1355.8 1425.1,1345.5 1435.9,1334.8 1446.4,1324.1 1456.8,1313.2 
				1467,1302.1 1477,1290.9 1486.9,1279.5 1496.5,1267.9 1506,1256.1 1515.2,1244.2 1523.5,1233.1 1524.3,1232.2 			"/>
			<path class="st9" d="M1308.7,1440.7c-41.3,25.8-61.8,74.9-51.2,122.4"/>
			<path class="st9" d="M1262.4,1015L1262.4,1015c56.3,44.2,135.9,42.4,190.1-4.3"/>
			<path class="st9" d="M1258.6,1011.5C1258.6,1011.5,1258.6,1011.5,1258.6,1011.5c1.2,1.3,2.5,2.5,3.9,3.5"/>
			<line class="st9" x1="1258.6" y1="1011.5" x2="1229.1" y2="980.4"/>
			<path class="st9" d="M1229,980.3c-11.3-10.5-27.4-14.1-42.2-9.4c0,0,0,0,0,0"/>
			<line class="st9" x1="1505.6" y1="1178.7" x2="1490.4" y2="1190.1"/>
			<path class="st9" d="M1535.3,1177.9c-9.1-6.1-21-5.8-29.8,0.8"/>
			<path class="st9" d="M2281.9,1951.3c8.8-10.3,17.3-20.7,25.6-31.2c93.8-119.3,158.5-257.8,190.3-404.5
				c16.9-77.9,24.5-158.1,22.2-238.9"/>
			<path class="st9" d="M2517.5,1227.7C2517.5,1227.7,2517.5,1227.7,2517.5,1227.7c-10.9-141.2-50.8-273.4-113.5-391.1
				c-57.4-107.8-133.9-203.5-224.8-282.8C2050.9,441.9,1894,362.6,1722,327.9c-76.2-15.4-155.3-22-236.2-18.9
				C951,329.7,528,769.3,528,1304.5c0,0,0,0,0,0"/>
			<path class="st9" d="M528.5,1336.3c2.1,65.1,10.5,128.9,24.7,190.8c10.4,45.7,24.1,90.3,40.6,133.5
				c13.7,35.8,29.5,70.8,47.1,104.6c45.8,87.8,104.5,168.3,174.1,238.9c9.5,9.6,19.2,19.1,29.1,28.3
				c94,87.9,205.9,158.3,331.2,205.1c9,3.4,18.1,6.6,27.1,9.7c70.9,24.2,143.3,40,215.9,47.8c307.9,32.9,619.5-79.3,836.4-313.4"/>
			<polyline class="st9" points="2497.8,1515.6 2497.8,1515.6 2486.1,1502.7 2474.3,1489.9 2462.2,1477.4 2450.1,1465 
				2437.6,1452.7 2425.1,1440.7 2412.4,1428.9 2399.5,1417.2 2386.4,1405.7 2373.1,1394.4 2359.8,1383.3 2346.1,1372.4 
				2346.1,1372.4 			"/>
			<polyline class="st9" points="2256.5,1307.8 2241.3,1298.1 2226,1288.6 2210.5,1279.3 2194.9,1270.3 2179.2,1261.5 2163.3,1253 
				2163.3,1252.9 			"/>
			<polyline class="st9" points="1818,1132.8 1817.9,1132.8 1801.1,1129.8 1784.2,1127.1 1767.3,1124.6 1750.3,1122.4 
				1733.2,1120.3 1716.2,1118.6 1699.2,1117.1 1682.1,1115.8 1665,1114.8 1647.9,1114 1630.8,1113.4 1613.6,1113.1 1596.5,1113.1 
				1588.9,1113.2 1579.3,1113.3 1562.2,1113.7 1545.1,1114.3 1528,1115.3 1510.9,1116.4 1493.9,1117.9 1476.8,1119.5 1459.8,1121.4 
				1442.8,1123.5 1425.9,1125.9 1408.9,1128.6 1392,1131.4 1375.2,1134.5 1358.4,1137.9 1341.6,1141.5 1324.9,1145.2 1308.3,1149.3 
				1291.8,1153.6 1275.2,1158.1 1258.8,1162.9 1242.4,1167.9 1242.4,1167.9 			"/>
			<polyline class="st9" points="922,1323.7 921.9,1323.7 908.8,1332.9 895.8,1342.2 882.9,1351.7 870.1,1361.4 857.5,1371.2 
				845,1381.2 844.9,1381.2 			"/>
			<polyline class="st9" points="760.2,1456.9 748.6,1468.5 737.1,1480.3 725.7,1492.3 714.5,1504.3 703.5,1516.6 692.7,1529 
				682,1541.5 671.5,1554.2 661.2,1567 651,1580 641,1593.1 631.2,1606.4 621.6,1619.8 612.2,1633.3 603,1646.9 593.9,1660.6 			"/>
			<path class="st9" d="M2307.5,1920.1c-40.3-67.3-88.1-129.7-142.5-186.2c0,0,0-0.1-0.1-0.1"/>
			<path class="st9" d="M1811.7,1493.6C1811.7,1493.6,1811.7,1493.6,1811.7,1493.6c-115.8-47.5-238.9-73.6-363.4-77.3
				c-36.3-1.1-72.8-0.3-109.2,2.5c0,0,0,0,0,0"/>
			<path class="st9" d="M835.6,1594.4c-71.8,48.6-137.2,106-194.7,170.9c0,0,0,0,0,0"/>
			<polyline class="st9" points="2403.7,836.7 2385.2,830.7 2366.6,825 2347.9,819.5 2329.2,814.3 2310.3,809.2 2291.5,804.4 
				2272.5,799.9 2253.6,795.5 2234.5,791.4 2215.4,787.6 2196.3,783.9 2177.1,780.6 2157.9,777.4 2138.6,774.4 2119.3,771.8 
				2100,769.3 2080.6,767.1 2061.3,765.1 2041.9,763.4 2022.5,762 2003.1,760.7 1983.6,759.7 1964.1,758.9 1944.7,758.4 
				1925.2,758.1 1905.7,758 1886.2,758.2 1884.9,758.2 1866.7,758.6 1847.3,759.3 1827.9,760.2 1808.4,761.3 1789,762.7 
				1769.6,764.3 1750.2,766.2 1730.8,768.3 1711.5,770.6 1692.2,773.2 1672.9,776 1653.7,779 1634.5,782.3 1615.3,785.8 
				1596.2,789.6 1577.2,793.6 1558.2,797.8 1539.2,802.3 1520.3,807 1501.5,811.9 1482.7,817 1464,822.4 1445.3,828 1426.7,833.8 
				1408.2,840 1389.8,846.3 1371.4,852.7 1353.1,859.5 1335,866.5 1316.9,873.7 			"/>
			<polyline class="st9" points="812.5,1201.2 812.4,1201.2 798,1215.4 783.6,1229.8 769.4,1244.4 755.4,1259.1 741.6,1274.1 
				727.9,1289.2 714.6,1304.4 701.3,1319.9 688.3,1335.6 675.5,1351.3 675.5,1351.3 			"/>
			<polyline class="st9" points="636.3,1402.3 625.3,1417.5 614.4,1432.8 603.7,1448.2 593.3,1463.8 583,1479.4 572.9,1495.2 
				563,1511.1 553.2,1527.1 			"/>
			<polyline class="st9" points="1722,328.2 1706.2,337.5 1690.5,347.1 1674.9,356.8 1659.5,366.7 1644.2,376.9 1629.1,387.3 
				1614,397.8 1599.1,408.5 1584.4,419.4 1569.8,430.6 1555.3,441.9 1541,453.4 1526.8,465 1512.9,476.9 1499,489 1485.3,501.1 
				1471.8,513.6 1458.4,526.1 1445.2,538.9 1432.2,551.8 1419.3,564.9 1406.5,578.1 1394.1,591.5 1381.7,605.1 1369.5,618.8 
				1357.5,632.7 1345.7,646.8 1334.1,660.9 1322.6,675.3 1311.3,689.8 1300.3,704.4 1289.4,719.2 1278.7,734.1 1268.2,749.2 
				1257.9,764.4 1247.8,779.7 1237.9,795.1 1228.2,810.7 1218.7,826.4 1218.7,826.4 			"/>
			<polyline class="st9" points="1033.9,1347.3 1033.9,1347.3 1031.8,1362.7 1029.8,1378 1029.8,1378 			"/>
			<polyline class="st9" points="1050.6,1847 1054.6,1865.2 1058.8,1883.4 1063.4,1901.6 1068.1,1919.7 1073.1,1937.7 
				1078.3,1955.6 1083.8,1973.5 1089.5,1991.2 1095.4,2009 1101.6,2026.6 1108,2044.2 1114.6,2061.7 1121.5,2079 1128.6,2096.4 
				1135.9,2113.5 1143.4,2130.6 1151.2,2147.6 1159.2,2164.5 1167.4,2181.3 1175.9,2198 1184.5,2214.6 1193.4,2231 1202.5,2247.3 
							"/>
			<polyline class="st9" points="2179.1,553.8 2162.2,563.1 2145.3,572.4 2128.6,582 2112,591.9 2095.5,601.9 2079.1,612.1 
				2062.9,622.6 2046.8,633.2 2030.8,644.1 2015.1,655.1 1999.3,666.4 1983.8,677.8 1968.4,689.4 1953.2,701.2 1938.1,713.3 
				1923.1,725.5 1908.4,737.9 1893.7,750.4 1884.9,758.2 1879.3,763.2 1865,776.2 1850.8,789.3 1836.9,802.6 1823.1,816.1 
				1809.4,829.8 1795.9,843.6 1782.7,857.5 1769.5,871.7 1756.6,886 1743.9,900.5 1731.3,915.1 1718.9,930 1706.7,944.9 1694.7,960 
				1682.9,975.3 1671.3,990.7 1659.9,1006.2 1648.6,1021.9 1637.6,1037.7 1626.8,1053.7 1616.1,1069.8 1605.7,1086 1595.5,1102.4 
				1588.9,1113.2 1585.5,1118.9 1575.7,1135.5 1566.1,1152.3 1556.7,1169.1 1547.6,1186.1 1547.5,1186.1 			"/>
			<polyline class="st9" points="1523.5,1233.1 1515.3,1250.4 1507.2,1267.7 1499.4,1285.1 1491.7,1302.7 1484.3,1320.3 
				1477.1,1338 1470.1,1355.8 1463.4,1373.7 1456.8,1391.7 1450.5,1409.7 1448.3,1416.3 1444.5,1427.8 1438.6,1446.1 1433,1464.3 
				1427.6,1482.7 1422.4,1501.1 1417.5,1519.6 1412.8,1538.1 1408.3,1556.7 1404.1,1575.3 1400.1,1594 1396.3,1612.8 1392.8,1631.6 
				1389.5,1650.4 1386.4,1669.3 1383.6,1688.2 1381,1707.1 1378.6,1726.1 1376.5,1745.1 1374.6,1764.1 1372.9,1783.2 1371.6,1802.3 
				1370.4,1821.4 1369.5,1840.5 1368.7,1859.6 1368.3,1878.7 1368.1,1897.8 1368.1,1917 1368.4,1936 1368.9,1955.2 1369.6,1974.3 
				1370.6,1993.4 1371.8,2012.5 1373.2,2031.5 1375,2050.6 1376.9,2069.6 1379.1,2088.6 1381.5,2107.6 1384.1,2126.5 1387,2145.4 
				1390.1,2164.3 1393.4,2183.1 1397,2201.9 1400.8,2220.6 1404.9,2239.3 1409.2,2257.9 1413.7,2276.5 1418.4,2295.1 			"/>
			<polyline class="st9" points="1144.7,935.5 1151.8,934.5 1151.8,934.5 			"/>
			<path class="st9" d="M1151.8,934.5c6.7-1.3,11.9-6.5,13.4-13.1"/>
			<polyline class="st9" points="1165.2,921.4 1165.2,921.4 1175.1,877 			"/>
			<path class="st9" d="M1177.4,869c-0.9,2.6-1.7,5.2-2.3,7.9"/>
			<path class="st9" d="M1319,883.4c-0.5-3.3-1.2-6.6-2.2-9.7c-8.4-28.3-33.1-49.3-63.1-52.3c-12.2-1.2-24.2,0.6-35,5
				c-18.7,7.6-34,22.7-41.3,42.6"/>
			<line class="st9" x1="1319.1" y1="883.5" x2="1327.5" y2="943.5"/>
			<path class="st9" d="M1327.4,943.4C1327.4,943.5,1327.4,943.5,1327.4,943.4c4.5,28.7,23.3,53,49.8,64.7"/>
			<path class="st9" d="M1377.1,1008.1C1377.1,1008.1,1377.1,1008.1,1377.1,1008.1c23.5,12.1,51.2,13,75.4,2.5"/>
			<path class="st9" d="M568.9,1082.5L568.9,1082.5c60.1,38.9,139.3,29.7,188.9-21.8"/>
			<path class="st9" d="M757.8,1060.6c1.2-1.3,2.3-2.6,3.3-4"/>
			<polyline class="st9" points="761.2,1056.6 761.2,1056.6 786.2,1021.8 			"/>
			<path class="st9" d="M830.9,1007.6C830.9,1007.6,830.9,1007.6,830.9,1007.6c-16.4-4.6-34,1-44.8,14.1"/>
			<polyline class="st9" points="863.6,965.7 863.5,965.7 856.4,965.7 			"/>
			<path class="st9" d="M841.3,954.6c2.4,6.4,8.3,10.8,15.1,11.2h0"/>
			<line class="st9" x1="841.3" y1="954.6" x2="825.5" y2="911.9"/>
			<path class="st9" d="M825.4,911.9c-1-2.6-2.1-5.1-3.4-7.5"/>
			<path class="st9" d="M822.1,904.4C822,904.4,822,904.4,822.1,904.4c-15.9-29.5-49.7-44.6-82.2-36.7
				c-32.6,7.9-55.7,36.9-56.1,70.4"/>
			<polyline class="st9" points="683.7,938.1 683.7,938.1 683.7,998.7 			"/>
			<path class="st9" d="M643.2,1069.6c24.6-15.2,39.9-42,40.4-70.9"/>
			<path class="st9" d="M568.9,1082.5c25.5,7.1,52.7,2.3,74.3-12.9c0,0,0,0,0,0"/>
			<polyline class="st9" points="1013.5,1844.1 1050.6,1847 1127.1,1853.1 			"/>
		</g>
	</g>
</g>
<g>
	<path class="st4" d="M614,2361.2l23.6-70.1l-70.6-70.7l6.3-2.4l0.1,0c4.5-1.4,9.3-2.1,14.5-2.1c1.6,0,3.2,0.1,4.8,0.2
		c7.2,0.6,14.3,4.1,21.1,10.5l33.8,33.9l36.5-107.7l-208.3,70.1l-24.1-24.1l280.9-94l-94.6,280.5L614,2361.2z"/>
	<path class="st4" d="M616.3,2360.6l23.6-70.1l-69.3-69.4l3.4-1.3c5.6-1.7,11.8-2.3,18.6-1.8c6.8,0.5,13.4,3.8,19.9,10l36.1,36.1
		l38.8-114.6l-210.9,71l-20.9-20.9l274-91.7l-92.3,273.6L616.3,2360.6z"/>
	<path class="st4" d="M836.3,2499.4c-3.9,0-7.9-0.2-12-0.5c-19.1-1.6-38.6-8.9-58.1-21.9c-19.9-13.2-35.2-30.3-45.5-50.6
		c-10.3-20.3-14.8-42.4-13.3-65.5c1.5-23.1,9.4-45.7,23.6-67c14.3-21.6,32.3-37.8,53.5-48.3c18.3-9.1,37.7-13.7,57.5-13.7
		c3.1,0,6.2,0.1,9.3,0.3c23.2,1.6,44.9,9.1,64.6,22.2c18.5,12.3,32.3,26.9,41.2,43.4c8.8,16.5,13.7,33.1,14.6,49.5
		c0.9,16.3-1.1,31.2-5.9,44.3l-0.5,1.5l-2.5-0.3l-0.1,0c-3.6-0.8-6.8-2.2-9.7-4.1c-4.4-2.9-7.8-7-10.2-12c-2.3-5-3.3-10.4-3-16.2
		c0.9-14.4-1.6-29-7.5-43.5c-5.8-14.4-17.1-27.2-33.5-38.1c-14.8-9.9-31.2-15.4-48.5-16.4c-1.9-0.1-3.9-0.2-5.8-0.2
		c-15.3,0-30.4,3.7-44.6,10.9c-16.1,8.1-29.8,20.6-40.7,37c-11,16.5-17.4,34-19,52c-1.7,18,1.3,35.1,8.8,50.9
		c7.5,15.8,19.3,29.1,34.9,39.5c17.1,11.4,33.4,17.1,48.6,17.1c4.4,0,8.7-0.5,13-1.4c19.1-4.3,35.9-12,49.9-23l1.6-1.3l18.9,25.7
		l-1.4,1.2c-10.2,8.5-23,15.8-38.2,21.5C864,2497.1,850.6,2499.4,836.3,2499.4z"/>
	<path class="st4" d="M875.3,2490.6c-15,5.7-32,7.8-50.8,6.2c-18.8-1.5-37.9-8.7-57.2-21.6c-19.7-13.1-34.7-29.7-44.9-49.8
		c-10.2-20.1-14.6-41.6-13.1-64.5c1.4-22.9,9.2-44.9,23.3-66.1c14.2-21.4,31.8-37.2,52.7-47.6c20.9-10.4,42.9-14.7,65.8-13.1
		c22.9,1.6,44.1,8.9,63.7,21.9c18.3,12.2,31.8,26.4,40.5,42.7c8.7,16.3,13.5,32.5,14.3,48.6c0.8,16.1-1.1,30.6-5.8,43.5l-0.8-0.1
		c-3.4-0.7-6.4-2-9-3.8c-4.1-2.7-7.3-6.5-9.5-11.2c-2.2-4.7-3.1-9.8-2.8-15.2c0.9-14.8-1.6-29.6-7.6-44.4c-6-14.8-17.4-27.8-34.3-39
		c-15.2-10.1-31.7-15.7-49.5-16.7c-17.8-1-35,2.6-51.5,10.9c-16.5,8.3-30.3,20.9-41.5,37.7c-11.2,16.8-17.7,34.5-19.4,52.9
		c-1.7,18.4,1.3,35.7,9,52c7.7,16.2,19.6,29.7,35.6,40.3c22.6,15,43.6,20.3,63.1,16c19.5-4.4,36.4-12.2,50.7-23.4l16.6,22.6
		C902.9,2477.9,890.3,2484.9,875.3,2490.6z"/>
	<path class="st4" d="M954,2578.7l92.4-214l-54.2-23.4c-7-3-12-8.2-14.7-15.3c-2.7-7.1-2.6-14.1,0.4-20.9l0.8-1.8l162.2,70
		c7,3,12,8.1,14.8,15.1c2.8,7,2.6,14.1-0.4,21.1l-0.8,1.8l-79.2-34.2l-92.4,214L954,2578.7z"/>
	<path class="st4" d="M1153.7,2389.1c2.6,6.5,2.4,13-0.4,19.6l-79.2-34.2l-92.4,214l-25.1-10.9l92.4-214l-56.1-24.2
		c-6.6-2.8-11.1-7.5-13.6-14.2c-2.5-6.6-2.4-13.1,0.3-19.4l160.3,69.2C1146.5,2377.9,1151.1,2382.6,1153.7,2389.1z"/>
	
		<rect x="1031.2" y="2501.7" transform="matrix(-0.2897 0.9571 -0.9571 -0.2897 3908.6028 2133.7236)" class="st4" width="262.6" height="31"/>
	<path class="st4" d="M1187.1,2389.6l25.9,7.8l-74.9,247.5l-25.9-7.8L1187.1,2389.6z"/>
	<path class="st4" d="M1241.9,2410.3l3.1,0.5c9.4,1.4,17.7,5.3,24.7,11.8c6.9,6.4,11.5,14.3,13.6,23.4l51.6,174.4l100.5-153
		c4.6-8.1,11.1-14.3,19.5-18.2c6.3-3,12.8-4.5,19.5-4.5c2.2,0,4.5,0.2,6.8,0.5l3.1,0.5l-159.7,244.9L1241.9,2410.3z"/>
	<path class="st4" d="M1455.6,2450.9c8-3.8,16.4-5.1,25.2-3.8l-155.6,238.7l-80.6-273.1c9,1.3,16.9,5.1,23.6,11.3
		c6.7,6.2,11,13.7,13,22.5l52.9,178.6l102.9-156.6C1441.4,2460.6,1447.6,2454.7,1455.6,2450.9z"/>
	<path class="st4" d="M1491.1,2442.2l165.9-7.6l1.3,29.1l-134.9,6.2l3.9,85.5l106.8-4.9l0.1,2c0.3,7.4-2,14-6.9,19.5
		c-4.9,5.5-11.2,8.5-18.6,8.9l-80.1,3.7l4.1,89.5l136-6.2l1.3,29.1l-167,7.7L1491.1,2442.2z"/>
	<path class="st4" d="M1668.1,2695l-163,7.5l-11.8-258.4l161.9-7.4l1.2,25.1l-134.9,6.2l4.1,89.4l106.8-4.9
		c0.3,6.9-1.8,12.9-6.4,18.1c-4.6,5.2-10.3,7.9-17.2,8.2l-82.1,3.8l4.3,93.5l136-6.2L1668.1,2695z"/>
	<path class="st6" d="M1761.1,2418.6l90.6-28.2c12.8-4,25.1-6,36.4-6c9.7,0,18.9,1.5,27.4,4.4c18.6,6.4,31.3,20,37.6,40.3
		c3,9.7,3.7,20.9,2.1,33.4c-1.5,11.4-7.7,22.6-18.6,33.3c10.3,0.1,19.8,2.2,28.2,6.3c9.7,4.8,17.6,10.9,23.4,18.3
		c5.8,7.3,10,14.8,12.3,22.3c7.2,23.2,4.1,43.5-9.2,60.4c-13.2,16.7-32.8,29.2-58.2,37.1l-93.8,29.2L1761.1,2418.6z M1859.9,2632.8
		l65.2-20.3c15.6-4.9,28.3-12.8,37.7-23.5c9.3-10.6,11.5-23.2,6.7-38.7c-4.7-15.2-14-23.9-28.5-26.7c-5.1-1-10.5-1.5-15.9-1.5
		c-10.1,0-20.9,1.8-32,5.2l-4.9,1.5c-5.2,1.6-9.9,2.4-13.9,2.4c-5.5,0-10-1.5-13.3-4.5c-5.7-5-9-9.4-10.3-13.6l-0.6-1.9l31.6-9.8
		c18.7-5.8,31.6-14.3,38.3-25.2c6.6-10.8,7.9-22.6,4-35.1c-4.2-13.3-12.1-21.4-24.2-24.8c-5.1-1.4-10.6-2.1-16.2-2.1
		c-7.9,0-16.5,1.4-25.4,4.2l-59.2,18.4L1859.9,2632.8z"/>
	<path class="st6" d="M1963.8,2503.9c9.5,4.7,17.1,10.6,22.8,17.7c5.7,7.1,9.7,14.4,12,21.7c7,22.6,4.1,42.1-8.9,58.6
		c-13,16.4-32.1,28.6-57.3,36.4l-91.9,28.6l-76.9-246.9l88.7-27.6c23.5-7.3,44.4-7.9,62.5-1.6c18.1,6.3,30.2,19.3,36.4,39
		c2.9,9.4,3.6,20.3,2,32.5c-1.6,12.3-8.9,24.2-21.8,35.7C1943.5,2497.2,1954.3,2499.2,1963.8,2503.9z M1964.4,2590.3
		c9.7-11,12.1-24.6,7.1-40.6c-4.9-15.8-14.9-25.1-30.1-28c-15.1-2.9-31.4-1.7-48.8,3.8l-2.5,0.8l-2.5,0.8c-11.5,3.6-20,3.1-25.3-1.6
		c-5.3-4.7-8.6-8.9-9.8-12.7l29.7-9.2c19.3-6,32.4-14.7,39.4-26c6.9-11.3,8.3-23.6,4.2-36.8c-4.3-13.9-12.9-22.6-25.6-26.1
		c-12.7-3.5-27-2.8-42.8,2.1l-61.1,19l62.2,199.6l67.1-20.9C1941.8,2609.4,1954.6,2601.4,1964.4,2590.3z"/>
	<path class="st6" d="M2051.4,2304.7l243,169l-29.9,16.4l-60.7-42.2l-87.6,48.1l-0.6-6.8l0-0.1c-0.1-6.1,1.1-12.5,3.6-19.1
		c2.6-6.8,7.9-12.6,16-17.3l42-23.1l-93.3-65l9.3,219.6l-29.9,16.4L2051.4,2304.7z"/>
	<path class="st6" d="M2264.6,2487.8l-60.7-42.2l-85.9,47.2l-0.3-3.6c-0.1-5.8,1-12,3.4-18.3c2.4-6.4,7.4-11.8,15.1-16.3l44.8-24.6
		l-99.2-69.2l9.4,222.4l-25.9,14.3l-11.6-288.7l237.1,164.9L2264.6,2487.8z"/>
	<path class="st6" d="M2169.3,2239.3l72.2-61.6c19-16.2,38.5-25.2,57.9-26.6c1.6-0.1,3.2-0.2,4.7-0.2c17.7,0,33.1,7.5,45.8,22.4
		c6.6,7.7,11.6,17.7,15,29.9c3.1,11.1,1.8,23.8-4,37.9c8.5-3.6,17-5.4,25.3-5.4c1,0,2.1,0,3.1,0.1c10.8,0.6,20.5,3.1,28.7,7.5
		c8.2,4.4,15,9.7,20.1,15.7c15.8,18.5,20.9,38.4,15.3,59.2c-5.5,20.5-18.6,39.7-38.9,57l-74.7,63.8L2169.3,2239.3z M2344.5,2397.2
		l51.9-44.4c12.4-10.6,21-22.9,25.4-36.4c4.4-13.4,1.4-25.9-9.1-38.2c-8.1-9.5-17.5-14.3-28.1-14.3c-2.8,0-5.7,0.3-8.6,1
		c-14.7,3.2-29,10.7-42.5,22.3l-3.9,3.4c-7.5,6.4-14.5,9.7-20.6,9.7c-1.8,0-3.5-0.3-5.2-0.8c-7.2-2.3-12-5.1-14.9-8.4l-1.3-1.5
		l25.2-21.5c14.9-12.8,23.4-25.6,25.3-38.2c1.8-12.5-1.6-23.9-10.1-33.9c-7.8-9.2-16.6-13.6-27-13.6c-1.6,0-3.3,0.1-5,0.3
		c-12.6,1.7-25.2,7.9-37.5,18.3l-47.2,40.3L2344.5,2397.2z"/>
	<path class="st6" d="M2389.2,2237.8c10.5,0.6,19.8,3,27.9,7.3c8.1,4.3,14.6,9.4,19.5,15.2c15.4,18,20.3,37.1,14.9,57.3
		c-5.4,20.2-18.2,38.9-38.3,56l-73.2,62.5l-167.9-196.7l70.6-60.3c18.8-16,37.7-24.7,56.8-26.1c19.1-1.4,35.4,5.8,48.8,21.6
		c6.4,7.5,11.3,17.2,14.6,29.1c3.4,11.9,1.3,25.7-6,41.4C2367.9,2239.7,2378.6,2237.3,2389.2,2237.8z M2423.7,2317.1
		c4.6-14,1.5-27.4-9.4-40.1c-10.7-12.6-23.6-17.2-38.7-13.9c-15,3.3-29.5,10.8-43.4,22.7l-2,1.7l-2,1.7c-9.2,7.9-17.2,10.7-23.9,8.5
		c-6.7-2.2-11.4-4.8-14-7.8l23.6-20.2c15.4-13.1,24-26.3,25.9-39.4c1.9-13.1-1.6-25-10.6-35.5c-9.4-11.1-20.7-15.7-33.8-13.9
		c-13.1,1.8-25.9,8-38.5,18.8l-48.7,41.6l135.7,159l53.5-45.7C2410.5,2343.5,2419.1,2331.1,2423.7,2317.1z"/>
	<path class="st6" d="M2500.2,2130.5L2318,2112l2.4-2.9c6.6-8,15-14.1,24.9-18.1c7.6-3.1,15.4-4.6,23.2-4.6c2.4,0,4.8,0.1,7.1,0.4
		l111.7,12.1l-41.9-140.5l22.9-27.6l51.9,175.6l62.5,51.8c6.3,5.2,9.8,12,10.5,20c0.7,8.1-1.6,15.2-6.6,21.3l-1.3,1.5L2500.2,2130.5
		z"/>
	<path class="st6" d="M2467.5,1934.9l51,172.6l62.9,52.2c5.9,4.9,9.1,11.1,9.8,18.7c0.6,7.6-1.4,14.2-6.2,19.9l-84-69.7l-179.1-18.2
		c6.5-7.8,14.5-13.6,24.1-17.5c9.6-3.9,19.4-5.2,29.3-4l114.7,12.4l-42.4-142.4L2467.5,1934.9z"/>
</g>
<path id="SVGID_x5F_3_x5F_" class="st10" d="M2594.5,2186.9c-474.1,590.9-1337.4,685.6-1928.2,211.5S-19.1,1061.1,455,470.2
	s1337.4-685.6,1928.2-211.5S3068.6,1596,2594.5,2186.9z"/>
<text class="st0"><textPath  xlink:href="#SVGID_x5F_3_x5F_" startOffset="84.8226%"  class="st1">
<tspan  class="st4" style="font-family:'Medel-Regular'; font-size:370px;">ACTIVE</tspan><tspan  style="font-family:'Medel-Regular'; font-size:370px;"> </tspan><tspan  class="st6" style="font-family:'Medel-Regular'; font-size:370px;">BABY</tspan></textPath>
</text>
<g class="st0">
	<path class="st11" d="M635.7,2260.9l29.4-66.1l-62.3-75.4l6.5-1.8l0.1,0c3-0.6,6.1-0.9,9.4-0.9c3.1,0,6.3,0.3,9.7,0.9
		c7,1.2,13.6,5.3,19.6,12.2l29.8,36.1l45.3-101.4l-209.2,49.2l-21.3-25.8l282.4-65.8L657,2286.6L635.7,2260.9z"/>
	<path class="st11" d="M638,2260.5l29.4-66.1l-61.1-73.9l3.4-1c5.6-1.2,11.7-1.2,18.3-0.1c6.6,1.1,12.7,5,18.5,11.5l31.8,38.5
		l48.3-108l-212,49.8l-18.5-22.3l275.3-64.1l-115,258.1L638,2260.5z"/>
	<path class="st11" d="M854.8,2415.3c-6.6,0-13.4-0.5-20.5-1.6c-18.5-2.8-37.1-11.4-55.3-25.3c-18.5-14.3-32.4-31.9-41-52.5
		c-8.7-20.6-11.6-42.4-8.6-64.9c3-22.5,12.3-44,27.6-63.9c15.5-20.1,34.1-34.7,55.5-43.5c15.7-6.5,32-9.7,48.3-9.7
		c5.9,0,11.9,0.4,17.9,1.3c22.5,3.2,43.2,11.9,61.6,26.1c17.2,13.2,29.7,28.4,37.2,45.2c7.5,16.7,11.1,33.3,10.9,49.3
		c-0.3,16-3.2,30.4-8.8,42.8l-0.6,1.5l-2.5-0.5l-0.1,0c-3.4-1-6.5-2.6-9.2-4.6c-4.1-3.2-7.2-7.3-9.1-12.4c-1.9-5-2.5-10.4-1.8-16
		c1.9-14,0.4-28.4-4.3-42.9c-4.7-14.4-14.8-27.7-30.1-39.4c-13.8-10.6-29.4-17.1-46.3-19.3c-4.1-0.5-8.2-0.8-12.2-0.8
		c-12.7,0-25.4,2.6-37.7,7.8c-16.2,6.8-30.5,18-42.3,33.4c-11.8,15.3-19.3,32-22.1,49.4c-2.9,17.4-1.1,34.3,5.1,50.3
		c6.3,16,16.8,29.7,31.4,40.9c17.4,13.4,34.3,20.1,50.4,20.1c2.9,0,5.8-0.2,8.7-0.7c18.9-2.9,35.8-9.3,50.2-19.1l1.7-1.2l16.7,26.5
		l-1.5,1.1c-10.5,7.6-23.6,13.8-38.8,18.4C875.8,2413.9,865.5,2415.3,854.8,2415.3z"/>
	<path class="st11" d="M884.7,2409.1c-15.1,4.5-31.7,5.4-50,2.6c-18.3-2.8-36.4-11.1-54.4-24.9c-18.4-14.1-31.8-31.4-40.4-51.7
		c-8.6-20.3-11.4-41.6-8.4-63.8c3-22.2,12-43.2,27.2-62.9c15.3-19.9,33.5-34.2,54.7-42.9c21.2-8.7,42.9-11.5,65.1-8.3
		c22.3,3.1,42.5,11.7,60.6,25.7c17,13.1,29.2,27.9,36.6,44.4c7.4,16.5,11,32.7,10.7,48.4c-0.3,15.8-3.1,29.8-8.6,42l-0.8-0.2
		c-3.2-1-6.1-2.4-8.6-4.3c-3.8-2.9-6.7-6.8-8.5-11.5c-1.8-4.8-2.4-9.8-1.7-15c1.9-14.4,0.4-29-4.4-43.8
		c-4.9-14.9-15.1-28.3-30.8-40.4c-14.2-10.9-29.9-17.5-47.2-19.7c-17.3-2.2-34.3,0.2-51,7.1c-16.7,7-31,18.3-43.1,34
		c-12.1,15.7-19.6,32.4-22.5,50.3c-2.9,17.8-1.2,35,5.3,51.3c6.4,16.4,17.1,30.3,32,41.8c21,16.2,41.2,22.8,60.5,19.9
		c19.3-2.9,36.3-9.4,51-19.4l14.6,23.1C912.5,2398.5,899.7,2404.6,884.7,2409.1z"/>
	<path class="st11" d="M958.3,2500.3l101.1-204.4l-51.8-25.6c-6.7-3.3-11.3-8.6-13.6-15.7c-2.3-7.1-1.8-13.9,1.4-20.5l0.9-1.8
		l155,76.6c6.7,3.3,11.3,8.5,13.7,15.5c2.4,7,1.9,13.9-1.5,20.6l-0.9,1.8l-75.6-37.4l-101.1,204.4L958.3,2500.3z"/>
	<path class="st11" d="M1163,2325.1c2.2,6.5,1.7,12.8-1.4,19.1l-75.6-37.4L985,2511.2l-24-11.9l101.1-204.4l-53.6-26.5
		c-6.3-3.1-10.5-7.9-12.6-14.5c-2.1-6.6-1.7-12.9,1.3-18.9l153.2,75.7C1156.6,2313.8,1160.8,2318.6,1163,2325.1z"/>
	
		<rect x="1037.4" y="2434.9" transform="matrix(-0.3265 0.9452 -0.9452 -0.3265 3862.4094 2148.1384)" class="st11" width="257" height="30.4"/>
	<path class="st11" d="M1194.7,2326.2l25,8.6l-82.6,239.2l-25-8.6L1194.7,2326.2z"/>
	<path class="st11" d="M1246,2348.8l3.1,0.5c9.2,1.5,17.2,5.6,23.9,12.1c6.7,6.5,11,14.3,12.8,23.2l46.8,171.6l101.5-147.4
		c4.6-7.9,11.2-13.7,19.5-17.4c5.9-2.6,12-4,18.3-4c2.5,0,5.1,0.2,7.7,0.6l3.1,0.5L1321,2624.8L1246,2348.8z"/>
	<path class="st11" d="M1454.2,2393.1c7.9-3.6,16.2-4.6,24.8-3.2l-157.3,230.2l-73-268.9c8.8,1.5,16.4,5.3,22.8,11.5
		c6.4,6.2,10.5,13.6,12.2,22.2l47.9,175.8l103.9-151C1440.1,2402.3,1446.3,2396.7,1454.2,2393.1z"/>
	<path class="st11" d="M1487.3,2384.8l162.4-7.4l1.3,28.6l-132,6l3.8,83.5l104.5-4.8l0.1,2c0.3,7.3-1.9,13.7-6.8,19.1
		c-4.8,5.4-11,8.4-18.3,8.7l-78.3,3.6l4,87.5l133.1-6.1l1.3,28.6l-163.5,7.4L1487.3,2384.8z"/>
	<path class="st11" d="M1660.3,2632.2l-159.5,7.3l-11.5-252.8l158.4-7.2l1.1,24.6l-132,6l4,87.5l104.5-4.8
		c0.3,6.8-1.8,12.6-6.3,17.7c-4.5,5-10.1,7.7-16.8,8l-80.3,3.7l4.2,91.5l133.1-6.1L1660.3,2632.2z"/>
	<path class="st12" d="M1748.8,2361l87.8-30.1c13.4-4.6,26.2-7,38-7c8.5,0,16.6,1.2,24.3,3.6c18.4,5.8,31.2,18.7,38,38.4
		c3.2,9.4,4.2,20.3,3,32.6c-1.1,11.2-6.9,22.3-17.2,33c0.5,0,1,0,1.6,0c9.5,0,18.2,1.8,26.1,5.4c9.6,4.4,17.5,10.2,23.4,17.2
		c5.9,7,10.2,14.2,12.7,21.5c7.7,22.5,5.2,42.4-7.3,59.4c-12.4,16.7-31.2,29.5-55.9,37.9l-90.9,31.2L1748.8,2361z M1851.5,2567.7
		l63.2-21.7c15.1-5.2,27.3-13.2,36.2-24c8.8-10.6,10.6-23,5.5-38c-5-14.7-14.4-22.9-28.6-25.3c-4.3-0.7-8.7-1-13.1-1
		c-10.6,0-21.9,2-33.6,6l-4.8,1.6c-5.4,1.8-10.2,2.8-14.4,2.8c-5,0-9.1-1.3-12.4-4c-5.7-4.7-9.1-9-10.5-13l-0.6-1.9l30.7-10.5
		c18.2-6.2,30.5-14.9,36.7-25.7c6.1-10.7,7.1-22.3,3-34.4c-4.4-12.9-12.4-20.6-24.3-23.6c-4.5-1.1-9.2-1.7-14.1-1.7
		c-8.3,0-17.2,1.6-26.6,4.8l-57.4,19.7L1851.5,2567.7z"/>
	<path class="st12" d="M1949.5,2438.8c9.4,4.3,17,9.9,22.8,16.7c5.8,6.8,9.9,13.8,12.3,20.8c7.5,21.9,5.2,41.1-7.1,57.5
		c-12.2,16.4-30.5,28.8-55,37.2l-89,30.5l-82.1-239.3l86-29.5c22.8-7.8,43.2-8.9,61.1-3.3c17.9,5.6,30.1,18,36.7,37.2
		c3.1,9.1,4.1,19.7,2.9,31.7c-1.2,12-8,23.9-20.4,35.5C1929.4,2432.8,1940.1,2434.5,1949.5,2438.8z M1952.4,2523.3
		c9.2-11.1,11.2-24.4,5.8-39.9c-5.2-15.3-15.3-24.2-30.2-26.6c-14.9-2.4-30.7-0.7-47.6,5.1l-2.4,0.8l-2.4,0.8
		c-11.2,3.8-19.5,3.6-24.8-0.9c-5.3-4.4-8.6-8.5-9.9-12.1l28.8-9.9c18.7-6.4,31.3-15.3,37.8-26.5c6.5-11.3,7.5-23.3,3.1-36.1
		c-4.6-13.5-13.2-21.7-25.7-24.8c-12.5-3.1-26.5-2-41.8,3.2l-59.2,20.3l66.4,193.5l65.1-22.3
		C1930.8,2542.6,1943.2,2534.4,1952.4,2523.3z"/>
	<path class="st12" d="M2026.5,2240.4l246.1,153l-28.4,17.6l-61.5-38.2l-83.2,51.4l-0.9-6.6l0-0.1c-0.4-5.9,0.4-12.3,2.5-18.9
		c2.2-6.8,7.1-12.8,14.7-17.8l39.8-24.6l-94.3-58.8l20.1,214l-28.4,17.6L2026.5,2240.4z"/>
	<path class="st12" d="M2244.2,2408.6l-61.5-38.2l-81.6,50.4l-0.5-3.5c-0.4-5.7,0.4-11.7,2.4-18.1c2-6.4,6.7-11.9,13.9-16.7
		l42.5-26.3l-100.4-62.6l20.4,216.8l-24.6,15.2l-25.9-281.5l239.9,149.2L2244.2,2408.6z"/>
	<path class="st12" d="M2136.8,2171.5l66-65.3c17.4-17.2,35.8-27.3,54.6-30.1c3-0.4,6-0.7,9-0.7c15.5,0,29.6,6.3,41.9,18.8
		c7,7,12.6,16.5,16.8,28.1c3.8,10.6,3.4,23.1-1.1,37.2c9-4.6,18.1-7,27.2-7.2c0.6,0,1.1,0,1.7,0c9.9,0,19,1.8,26.9,5.3
		c8.4,3.7,15.4,8.4,20.8,13.8c16.7,16.9,23.2,35.9,19.2,56.7c-3.9,20.4-15.3,40.1-33.9,58.5l-68.3,67.6L2136.8,2171.5z
		 M2319.1,2312.9l47.5-47c11.3-11.2,18.8-23.8,22.2-37.4c3.3-13.4-0.5-25.3-11.6-36.6c-7.9-7.9-16.6-12-25.9-12
		c-3.5,0-7.1,0.6-10.9,1.7c-14.1,4.2-27.5,12.5-39.9,24.8l-3.6,3.6c-7.4,7.3-14.3,11-20.7,11c-1.3,0-2.6-0.2-3.9-0.5
		c-7.2-1.8-12.1-4.1-15.1-7.1l-1.4-1.4l23-22.8c13.6-13.5,21-26.7,21.9-39.1c0.9-12.3-3.3-23.2-12.3-32.3
		c-7.5-7.6-15.9-11.4-24.8-11.4c-2.4,0-4.8,0.3-7.3,0.8c-12.2,2.6-24,9.5-35.2,20.5l-43.1,42.7L2319.1,2312.9z"/>
	<path class="st12" d="M2351.3,2154.2c10.3-0.2,19.6,1.5,27.8,5.1s14.9,8.1,20.2,13.4c16.3,16.5,22.5,34.8,18.7,54.9
		c-3.9,20.1-15,39.3-33.3,57.4l-66.9,66.2l-178.1-179.8l64.6-63.9c17.1-17,35-26.8,53.5-29.6c18.5-2.7,34.9,3.1,49.2,17.5
		c6.8,6.9,12.3,16,16.4,27.3c4.1,11.4,3.2,25-2.9,40.8C2330.6,2157.6,2340.9,2154.5,2351.3,2154.2z M2390.7,2229.1
		c3.5-14-0.5-26.8-12.1-38.5c-11.4-11.5-24.3-15.1-38.7-10.8c-14.4,4.3-28,12.7-40.7,25.3l-1.8,1.8l-1.8,1.8
		c-8.4,8.3-16,11.7-22.7,10c-6.7-1.7-11.5-3.9-14.2-6.6l21.6-21.4c14.1-13.9,21.6-27.4,22.5-40.3c0.9-13-3.4-24.2-12.9-33.9
		c-10-10.1-21.3-13.8-34-11.2c-12.6,2.7-24.7,9.7-36.2,21.1l-44.5,44.1l143.9,145.3l48.9-48.4
		C2379.6,2255.8,2387.2,2243,2390.7,2229.1z"/>
	<path class="st12" d="M2448.9,2043l-179.2,0.9l2.1-3.1c5.6-8.5,13.2-15.3,22.4-20.2c9-4.8,18.6-7.2,28.4-7.2l110.5,0.2l-55.3-132.3
		l19.5-29.4l68.8,165.5l66.1,43.9c6.7,4.4,10.8,10.6,12.3,18.4c1.5,7.8,0.1,15-4.2,21.5l-1.1,1.7L2448.9,2043z"/>
	<path class="st12" d="M2396.8,1856.1l67.6,162.6l66.7,44.2c6.2,4.1,10,9.9,11.4,17.1c1.4,7.3,0.1,14-3.9,20l-89-59.1l-176.1,0.9
		c5.5-8.2,12.7-14.8,21.6-19.5c9-4.8,18.3-7.1,28.1-7l112.9,0.2l-56.1-134.1L2396.8,1856.1z"/>
</g>
<g class="st0">
	<g class="st1">
		<defs>
			<rect id="SVGID_4_" x="270.4" y="-265.8" width="3370" height="2384"/>
		</defs>
		<clipPath id="SVGID_5_">
			<use xlink:href="#SVGID_4_"  style="overflow:visible;"/>
		</clipPath>
		<g class="st13">
			<defs>
				<polyline id="SVGID_6_" points="3159.3,2104.2 3159.3,-251.3 751.4,-251.3 751.4,2104.2 3159.3,2104.2 				"/>
			</defs>
			<clipPath id="SVGID_7_">
				<use xlink:href="#SVGID_6_"  style="overflow:visible;"/>
			</clipPath>
			<path class="st14" d="M2674.6,657.2c0-121-98.1-219.1-219.1-219.1s-219.1,98.1-219.1,219.1c0,121,98.1,219.1,219.1,219.1
				S2674.6,778.2,2674.6,657.2"/>
			<path class="st14" d="M1586.8,525.3c-87-56.5-201.8-44.2-274.8,29.5"/>
			<path class="st14" d="M1280,595.7c-58.5,96.8-33.7,222.3,57.3,289.5c91,67.2,218.2,54.1,293.6-30.2
				c75.4-84.4,74.2-212.2-2.8-295.1"/>
			<polyline class="st14" points="2469.9,922.3 2488,920.6 2506,918.7 2524,916.6 2542,914.2 2560,911.6 2577.9,908.8 2595.8,905.6 
				2613.6,902.3 2631.4,898.8 2649.1,895 2666.8,890.9 2684.5,886.7 2702,882.1 2719.6,877.4 2737,872.4 2754.4,867.2 2771.7,861.8 
				2788.9,856.1 2806.1,850.2 2823.1,844 2840.2,837.7 2857,831.1 2873.9,824.3 2890.6,817.3 2907.2,810 			"/>
			<path class="st14" d="M2464.2,922.4c1.9,0,3.8,0,5.7-0.2"/>
			<polyline class="st14" points="1968.8,762.3 2017.7,794.9 2029.6,802.6 2041.5,810 2053.6,817.2 2065.8,824.2 2078.2,830.9 
				2090.6,837.5 2103.2,843.8 2115.9,850 2128.7,855.8 2141.6,861.5 2154.6,866.9 2167.7,872.1 2180.9,877.1 2194.1,881.8 
				2207.5,886.3 2221,890.5 2234.5,894.5 2248,898.3 2261.6,901.8 2275.4,905 2292.4,907.9 2309.5,910.5 2326.6,912.8 2343.7,914.9 
				2360.9,916.7 2378,918.3 2395.3,919.6 2412.5,920.7 2429.7,921.5 2447,922.1 2464.3,922.4 			"/>
			<polyline class="st14" points="1957.9,815.3 1968.1,827.2 1978.5,838.9 1989,850.4 1999.7,861.8 2010.6,872.9 2021.7,884 
				2032.9,894.9 2044.3,905.6 2055.8,916.1 2067.5,926.5 2079.4,936.7 2091.4,946.6 2103.5,956.5 2115.9,966.1 2128.3,975.5 
				2140.9,984.8 2153.6,993.8 2166.5,1002.7 2179.5,1011.4 			"/>
			<path class="st14" d="M2249.5,1093.4c-13.1-34.7-37.9-63.7-70-82.1"/>
			<polyline class="st14" points="2316.2,1587.2 2312.2,1568.8 2308.5,1550.5 2305,1532 2301.8,1513.6 2298.7,1495 2295.9,1476.5 
				2293.3,1457.9 2291,1439.3 2288.9,1420.7 2287,1402 2285.3,1383.3 2283.9,1364.6 2282.7,1345.9 2281.7,1327.1 2281.7,1313.2 
				2281.4,1299.3 2280.9,1285.4 2280.1,1271.5 2279.2,1257.6 2278,1243.7 2276.5,1229.9 2274.8,1216.1 2273,1202.3 2270.8,1188.5 
				2268.5,1174.8 2265.9,1161.1 2263.1,1147.4 2260.1,1133.9 2256.8,1120.3 2253.3,1106.9 2249.6,1093.4 			"/>
			<path class="st14" d="M2316.2,1587.2c1.7,7.3,8.1,12.4,15.6,12.4c7.5,0,13.9-5.2,15.5-12.5"/>
			<line class="st14" x1="2347.3" y1="1587.1" x2="2387.8" y2="1377.8"/>
			<path class="st14" d="M2463.8,1347c-13.1-11.2-31.4-14.2-47.4-7.8s-27.1,21.3-28.7,38.5"/>
			<polyline class="st14" points="2463.9,1347.1 2630.5,1520.8 2651.5,1540 			"/>
			<path class="st14" d="M2651.5,1539.9c5.4,5.5,12.9,8.4,20.6,8.1"/>
			<path class="st14" d="M2698.6,1518.3c-0.4-4.9-2.1-9.6-4.9-13.6"/>
			<polyline class="st14" points="2693.8,1504.7 2649.2,1435.2 2642.3,1424.5 2635.8,1413.6 2629.4,1402.6 2623.3,1391.5 
				2617.3,1380.2 2611.6,1368.9 2606,1357.4 2600.7,1345.9 2595.7,1334.3 2590.8,1322.5 2586.2,1310.7 2581.7,1298.8 2577.6,1286.8 
				2573.6,1274.6 2569.9,1262.5 2566.4,1250.3 2563.2,1238 			"/>
			<path class="st14" d="M2557.6,1120.4c-6.7,39.1-4.8,79.2,5.6,117.5"/>
			<path class="st14" d="M2661.3,1002.9c-51.4,20.4-89.9,64-103.7,117.6"/>
			<polyline class="st14" points="2661.4,1002.9 2840.2,912.7 2926.9,861.1 			"/>
			<path class="st14" d="M2926.8,861.1c1.6-0.6,3.1-1.4,4.6-2.3"/>
			<path class="st14" d="M2928.9,810.9c-6.8-3.3-14.7-3.6-21.7-0.9"/>
			<line class="st14" x1="1697.2" y1="1138.8" x2="1737.6" y2="1399.1"/>
			<path class="st14" d="M1706,1433.1c9,0.7,17.9-2.7,24-9.4s8.9-15.7,7.5-24.7"/>
			<polyline class="st14" points="1706,1433.1 1668.8,1430.2 1647.3,1614.2 			"/>
			<path class="st14" d="M1621.6,1614.2c1.3,6.1,6.6,10.4,12.8,10.4s11.5-4.3,12.8-10.4"/>
			<line class="st14" x1="1621.6" y1="1614.2" x2="1569.7" y2="1422.3"/>
			<polyline class="st14" points="1458.6,1413.5 1314.8,1581.4 1307.3,1589.2 			"/>
			<path class="st14" d="M1293.1,1597.7c5.6-1.1,10.6-4.1,14.2-8.5"/>
			<path class="st14" d="M1266.4,1563.7c-0.9,2-1.6,4.1-1.9,6.2"/>
			<polyline class="st14" points="1266.5,1563.8 1347.8,1404.7 1264.2,1398.1 			"/>
			<path class="st14" d="M1237.7,1361.5c-2.1,8.4-0.3,17.3,4.8,24.4c5.1,7,13,11.5,21.7,12.2"/>
			<line class="st14" x1="1237.8" y1="1361.6" x2="1295.9" y2="1123.8"/>
			<path class="st14" d="M1295.9,1123.8c5.2-14,4.7-29.5-1.7-43c-6.3-13.5-17.8-24-31.9-29"/>
			<polyline class="st14" points="984.5,917 996.7,925.5 1008.9,933.7 1021.3,941.8 1033.8,949.7 1046.4,957.3 1059.1,964.8 
				1072,972.1 1085,979.1 1098.1,986 1111.3,992.6 1124.5,999.1 1137.9,1005.3 1151.4,1011.3 1165,1017.1 1178.6,1022.7 
				1192.4,1028.1 1206.2,1033.3 1220.2,1038.2 1234.1,1043 1248.2,1047.5 1262.3,1051.8 			"/>
			<path class="st14" d="M994.8,883.8c-3.7-0.4-7.5,0.3-10.8,2.2"/>
			<polyline class="st14" points="994.9,883.9 1008.3,889.7 1021.8,895.4 1035.4,901 1049.1,906.2 1062.9,911.3 1076.8,916.1 
				1090.7,920.6 1104.7,925 1118.8,929.2 1133,933.1 1147.2,936.8 1161.4,940.2 1175.8,943.4 1190.2,946.4 1204.6,949.2 1219,951.7 
				1233.5,954 1248.1,956.1 1262.6,957.9 1277.2,959.5 1291.8,960.8 1306.4,962 1321.1,962.9 1335.8,963.5 1350.5,963.9 
				1365.1,964.1 1379.8,964 1394.5,963.7 1409.2,963.2 1423.8,962.4 1438.5,961.4 1453.1,960.1 1467.7,958.7 1482.3,956.9 
				1496.8,955 1511.3,952.8 1525.8,950.3 1540.3,947.7 1554.7,944.8 1569,941.7 1583.3,938.3 1597.6,934.7 1611.7,931 1625.8,926.9 
				1639.9,922.6 1653.8,918.2 1667.8,913.4 1681.6,908.5 1695.3,903.4 1709,898 1722.5,892.3 1736,886.5 1749.4,880.5 1762.7,874.3 
				1775.9,867.8 1788.9,861.1 1801.9,854.2 1814.8,847.1 1827.5,839.8 1840.1,832.3 1852.6,824.6 1864.9,816.7 1877.2,808.6 
				1889.3,800.2 1901.3,791.8 1913.1,783.1 1924.8,774.2 			"/>
			<polyline class="st14" points="1747.2,1019.2 1747.2,1019.2 1759.3,1010.8 1771.2,1002.1 1783,993.2 1794.6,984.2 1806.1,975 
				1817.4,965.6 1828.6,955.9 1839.5,946.1 1850.4,936.2 1861,926 1871.5,915.7 1881.8,905.2 1892,894.5 1902,883.7 1911.8,872.7 
				1921.4,861.5 1930.8,850.2 1940,838.7 1949.1,827.1 1957.9,815.3 			"/>
			<path class="st14" d="M1747.2,1019.1c-40.3,25.3-60.4,73.2-50.1,119.6"/>
			<path class="st14" d="M1702,603c55,43.2,132.9,41.5,185.9-4.2"/>
			<path class="st14" d="M1698.2,599.5c1.2,1.2,2.4,2.4,3.8,3.4"/>
			<line class="st14" x1="1698.2" y1="599.5" x2="1669.4" y2="569.2"/>
			<path class="st14" d="M1669.4,569.1c-11.1-10.3-26.8-13.8-41.2-9.2"/>
			<line class="st14" x1="1628.2" y1="560" x2="1628.2" y2="560"/>
			<line class="st14" x1="1939.7" y1="763" x2="1924.8" y2="774.2"/>
			<path class="st14" d="M1968.8,762.3c-8.9-5.9-20.5-5.6-29.1,0.8"/>
			<polyline class="st14" points="2909.7,1092.4 2898.3,1079.8 2886.7,1067.3 2875,1055 2863,1042.9 2850.9,1030.9 2838.7,1019.2 
				2826.2,1007.6 2813.6,996.2 2800.8,985 2787.8,973.9 2774.7,963.1 2761.4,952.4 			"/>
			<polyline class="st14" points="2673.8,889.3 2659,879.8 2644,870.5 2628.8,861.4 2613.6,852.6 2598.2,844 2582.8,835.6 			"/>
			<polyline class="st14" points="2245.1,718.1 2228.6,715.3 2212,712.6 2195.5,710.2 2178.9,707.9 2162.2,706 2145.6,704.3 
				2128.9,702.8 2112.2,701.5 2095.5,700.5 2078.8,699.7 2062,699.2 2045.3,698.9 2028.5,698.9 2011.8,699.1 1995.1,699.5 
				1978.3,700.1 1961.6,701 1944.9,702.2 1928.2,703.6 1911.5,705.2 1894.9,707 1878.3,709.1 1861.7,711.4 1845.2,714 1828.7,716.8 
				1812.2,719.8 1795.8,723.1 1779.4,726.6 1763.1,730.3 1746.8,734.3 1730.6,738.5 1714.4,742.9 1698.4,747.6 1682.3,752.5 			"/>
			<polyline class="st14" points="1369.1,904.8 1356.2,913.7 1343.5,922.9 1330.9,932.2 1318.4,941.6 1306.1,951.2 1293.8,961 			
				"/>
			<polyline class="st14" points="1211,1035 1198.8,1047.1 1186.9,1059.4 1175,1071.9 1163.4,1084.6 1152,1097.4 1140.7,1110.4 
				1129.7,1123.5 1118.8,1136.8 1108.1,1150.3 1097.7,1163.9 1087.4,1177.7 1077.4,1191.6 1067.5,1205.6 1057.8,1219.9 
				1048.4,1234.2 			"/>
			<path class="st14" d="M2723.6,1487.8c-39.4-65.8-86.2-126.9-139.3-182.1"/>
			<path class="st14" d="M2238.9,1070.9c-146.2-60.1-304.4-85.1-462-73.2"/>
			<path class="st14" d="M1284.7,1169.4c-70.2,47.5-134.1,103.7-190.3,167.1"/>
			<polyline class="st14" points="2817.7,428.6 2799.3,422.8 2780.8,417.1 2762.2,411.6 2743.5,406.4 2724.8,401.4 2706,396.6 
				2687.2,392.1 2668.3,387.8 2649.3,383.8 2630.3,380 2611.3,376.4 2592.1,373.1 2573,370 2553.8,367.1 2534.6,364.6 2515.4,362.2 
				2496.1,360.1 2476.9,358.1 2457.5,356.5 2438.2,355.1 2418.9,353.9 2399.5,353 2380.1,352.4 2360.8,351.9 2341.4,351.7 
				2322,351.8 2302.6,352.1 2283.2,352.6 2263.9,353.4 2244.5,354.4 2225.2,355.7 2205.9,357.2 2186.6,358.9 2167.3,361 
				2148.1,363.2 2128.9,365.6 2109.7,368.3 2090.5,371.3 2071.4,374.5 2052.3,377.9 2033.3,381.6 2014.3,385.5 1995.4,389.6 
				1976.5,394 1957.7,398.6 1938.9,403.5 1920.2,408.6 1901.6,413.9 1883,419.5 1864.5,425.3 1846.1,431.3 1827.7,437.5 1809.5,444 
				1791.3,450.7 1773.2,457.7 1755.2,464.8 			"/>
			<polyline class="st14" points="1262.1,785 1247.9,798.8 1233.8,812.9 1219.9,827.2 1206.2,841.6 1192.7,856.2 1179.4,871 
				1166.3,886 1153.4,901.1 1140.7,916.3 1128.1,931.8 			"/>
			<polyline class="st14" points="1089.8,981.7 1079,996.5 1068.5,1011.4 1058,1026.5 1047.8,1041.7 1037.7,1057 1027.9,1072.4 
				1018.1,1088 1008.7,1103.6 			"/>
			<polyline class="st14" points="2151.2,-68.5 2135.8,-59.4 2120.5,-50 2105.2,-40.5 2090.2,-30.8 2075.2,-20.9 2060.4,-10.7 
				2045.7,-0.4 2031.1,10 2016.7,20.8 2002.4,31.6 1988.3,42.7 1974.3,53.9 1960.5,65.3 1946.8,76.9 1933.3,88.7 1919.9,100.6 
				1906.6,112.7 1893.5,125 1880.6,137.5 1867.9,150.1 1855.3,162.9 1842.9,175.9 1830.6,188.9 1818.5,202.3 1806.7,215.6 
				1794.9,229.3 1783.4,242.9 1772,256.9 1760.8,270.8 1749.8,285.1 1738.9,299.3 1728.3,313.8 1717.9,328.4 1707.6,343.1 
				1697.5,358 1687.7,372.9 1678,388 1668.5,403.3 1659.2,418.6 			"/>
			<polyline class="st14" points="1478.6,927.9 1476.5,942.9 1474.6,957.9 			"/>
			<polyline class="st14" points="1494.8,1416.4 1498.8,1434.2 1502.9,1452 1507.4,1469.7 1512,1487.4 1516.9,1505 1522,1522.6 
				1527.4,1540 1532.9,1557.4 1538.7,1574.8 1544.8,1592 1551,1609.1 1557.5,1626.2 1564.2,1643.2 1571.1,1660.1 1578.3,1676.9 
				1585.7,1693.7 1593.2,1710.3 1601.1,1726.8 1609.1,1743.2 1617.4,1759.5 1625.8,1775.7 1634.5,1791.8 1643.4,1807.7 			"/>
			<polyline class="st14" points="2598.2,152.2 2581.6,161.1 2565.1,170.3 2548.7,179.7 2532.5,189.3 2516.4,199.1 2500.4,209.1 
				2484.5,219.3 2468.8,229.7 2453.2,240.4 2437.7,251.2 2422.4,262.1 2407.2,273.3 2392.2,284.7 2377.3,296.3 2362.5,308 
				2347.9,319.9 2333.5,332 2319.2,344.3 2305,356.8 2291,369.5 2277.2,382.3 2263.6,395.3 2250.1,408.5 2236.7,421.9 2223.5,435.4 
				2210.6,449 2197.7,462.9 2185.1,476.9 2172.7,491 2160.4,505.4 2148.2,519.8 2136.3,534.4 2124.6,549.2 2113,564.1 2101.7,579.2 
				2090.5,594.4 2079.5,609.7 2068.7,625.2 2058.2,640.8 2047.7,656.5 2037.6,672.4 2027.6,688.4 2017.8,704.5 2008.2,720.8 
				1998.8,737.2 1989.7,753.7 1980.7,770.2 			"/>
			<polyline class="st14" points="1957.3,816.2 1949,833.4 1941,850.6 1933.1,868 1925.6,885.4 1918.2,903 1911.1,920.6 
				1904.2,938.3 1897.5,956.2 1891,974 1884.8,992 1878.8,1010.1 1873,1028.2 1867.4,1046.4 1862.2,1064.7 1857.1,1083.1 
				1852.2,1101.4 1847.6,1119.9 1843.3,1138.4 1839.1,1157 1835.2,1175.6 1831.5,1194.3 1828.1,1213 1824.9,1231.7 1822,1250.6 
				1819.3,1269.4 1816.7,1288.3 1814.5,1307.2 1812.5,1326.1 1810.8,1345 1809.2,1364 1808,1383 1807,1402 1806.2,1421 1805.6,1440 
				1805.3,1459 1805.3,1478.1 1805.4,1497.1 1805.8,1516.1 1806.5,1535.2 1807.4,1554.1 1808.6,1573.1 1810,1592.1 1811.6,1611.1 
				1813.4,1630 1815.5,1648.9 1817.9,1667.8 1820.5,1686.7 1823.3,1705.5 1826.3,1724.3 1829.6,1743 1833.2,1761.7 1837,1780.3 
				1841,1798.9 1845.2,1817.5 1849.7,1836 1854.5,1854.4 			"/>
			<line class="st14" x1="1586.9" y1="525.3" x2="1593.8" y2="524.3"/>
			<path class="st14" d="M1593.8,524.3c6.5-1.3,11.6-6.3,13.1-12.8"/>
			<line class="st14" x1="1606.9" y1="511.5" x2="1616.5" y2="468.1"/>
			<path class="st14" d="M1618.8,460.3c-0.9,2.5-1.7,5.1-2.3,7.7"/>
			<path class="st14" d="M1757.3,474.4c-5-32.4-31.2-57.4-63.8-60.7c-32.6-3.3-63.3,15.8-74.7,46.6"/>
			<line class="st14" x1="1757.3" y1="474.4" x2="1765.5" y2="533"/>
			<path class="st14" d="M1765.5,533c4.4,28,22.7,51.8,48.6,63.3"/>
			<path class="st14" d="M1814.1,596.2c23,11.8,50,12.8,73.7,2.5"/>
			<line class="st14" x1="1887.9" y1="598.8" x2="1887.9" y2="598.8"/>
			<path class="st14" d="M1023.9,668.9c58.7,38,136.2,29,184.7-21.3"/>
			<path class="st14" d="M1208.6,647.5c1.2-1.2,2.3-2.5,3.3-3.9"/>
			<line class="st14" x1="1211.9" y1="643.6" x2="1236.4" y2="609.6"/>
			<path class="st14" d="M1280.1,595.7c-16-4.5-33.2,1-43.8,13.8"/>
			<line class="st14" x1="1280.1" y1="595.7" x2="1280.1" y2="595.7"/>
			<line class="st14" x1="1312" y1="554.8" x2="1305" y2="554.8"/>
			<path class="st14" d="M1290.3,543.9c2.3,6.2,8.1,10.5,14.7,10.9"/>
			<line class="st14" x1="1290.3" y1="543.9" x2="1274.8" y2="502.2"/>
			<path class="st14" d="M1274.8,502.1c-0.9-2.5-2-5-3.3-7.3"/>
			<path class="st14" d="M1271.4,494.8c-15.5-28.9-48.5-43.7-80.4-35.9c-31.8,7.8-54.4,36.1-54.9,68.8"/>
			<line class="st14" x1="1136.2" y1="527.8" x2="1136.2" y2="587"/>
			<path class="st14" d="M1096.6,656.4c24.1-14.9,39-41,39.5-69.4"/>
			<path class="st14" d="M1023.9,668.9c24.9,6.9,51.6,2.3,72.7-12.6"/>
			<line class="st14" x1="1024" y1="668.9" x2="1024" y2="668.9"/>
			<line class="st14" x1="1458.6" y1="1413.5" x2="1569.7" y2="1422.3"/>
			<path class="st14" d="M984.5,917.1c7.8,245.1,107.8,478.3,280.1,652.9"/>
			<path class="st14" d="M1293.1,1597.7c189.2,176.8,441,270.9,699.8,261.6c258.8-9.3,503.2-121.3,679.2-311.2"/>
			<path class="st14" d="M2698.6,1518.3c156.6-183.4,239.5-418.4,232.8-659.5"/>
			<path class="st14" d="M2928.9,810.9c-40.3-521.7-485.7-918.3-1008.6-898.1C1397.5-67,984,362.7,984,886"/>
		</g>
	</g>
</g>
<g>
	<defs>
		<polyline id="SVGID_8_" points="313.4,2499.4 2668.9,2499.4 2668.9,91.5 313.4,91.5 313.4,2499.4 		"/>
	</defs>
	<clipPath id="SVGID_9_">
		<use xlink:href="#SVGID_8_"  style="overflow:visible;"/>
	</clipPath>
	<g id="XMLID_2_" class="st15">
		<g>
			<path class="st3" d="M1192.4,872.3c-0.9,2.5-1.7,5.1-2.3,7.7l0,0.1l-9.6,43.4h0c-1.4,6.5-6.6,11.5-13.1,12.8v0l-6.9,1l-0.1,0
				c-87-56.5-201.8-44.2-274.8,29.5v0h-7l0,0c-6.6-0.4-12.4-4.7-14.7-10.9l0,0l-15.5-41.7l0-0.1c-0.9-2.5-2-5-3.3-7.3l0,0
				c-15.5-28.9-48.6-43.7-80.4-35.9c-31.8,7.8-54.4,36.1-54.9,68.9l0,0l-0.1,59.2l0,0c-0.5,28.3-15.4,54.5-39.5,69.4l0,0
				c-21.1,14.9-47.8,19.5-72.6,12.6c58.7,37.9,136.1,29,184.6-21.4v0c1.2-1.2,2.3-2.5,3.3-3.9l0.1,0l24.4-34l0,0
				c10.5-12.9,27.7-18.3,43.7-13.8l0,0c-35.7,59-40.3,128.6-18,189.3l-14.2,13.8l-14.1,14.1l-13.9,14.3l-13.7,14.4l-13.5,14.6
				l-13.3,14.8l-13.1,14.9l-13,15.1l-12.7,15.2l-12.5,15.4l-9.3-2.6l-14.1-4.1l-14-4.4l-14-4.6l-13.9-4.8l-13.8-5l-13.7-5.3
				l-13.6-5.5l-13.5-5.7l-13.4-5.9c-3.7-0.5-7.6,0.3-10.8,2.1h0c0-523.3,413.5-953,936.3-973.2c79.1-3.1,156.5,3.4,231,18.5l0,0.2
				l-15.5,9.1l-15.3,9.4l-15.2,9.5l-15.1,9.7l-14.9,9.9l-14.8,10.1l-14.7,10.3l-14.6,10.4l-14.4,10.7l-14.3,10.9l-14.1,11l-14,11.2
				l-13.8,11.4l-13.7,11.6l-13.5,11.8l-13.4,11.9l-13.3,12.1l-13.1,12.3l-12.9,12.4l-12.8,12.7l-12.5,12.8l-12.4,13l-12.3,13.1
				l-12.1,13.3l-11.9,13.4l-11.8,13.6l-11.5,13.7l-11.4,13.9l-11.2,14l-11,14.2l-10.9,14.3l-10.6,14.5l-10.4,14.6l-10.3,14.7
				l-10.1,14.9l-9.8,14.9l-9.7,15.1l-9.5,15.2l-9.3,15.4C1214.6,838,1199.7,852.8,1192.4,872.3L1192.4,872.3z"/>
			<path class="st4" d="M1724.9,343.4l0-0.2c168.2,33.9,321.5,111.4,446.9,220.9l-16.6,8.9l-16.4,9.2l-16.4,9.4l-16.3,9.6l-16.1,9.8
				l-16,10l-15.8,10.2l-15.7,10.4l-15.6,10.6l-15.5,10.8l-15.4,11l-15.2,11.2l-15,11.4l-14.9,11.6l-14.8,11.7l-14.6,11.9l-14.5,12.1
				l-14.3,12.3l-8.6,7.6l-7.9,0.1l-19.4,0.5l-19.3,0.8l-19.4,1l-19.3,1.3l-19.3,1.5l-19.3,1.7l-19.3,2l-19.3,2.2l-19.2,2.5
				l-19.2,2.7l-19.1,2.9l-19.1,3.2l-19.1,3.4l-19,3.7l-19,3.9l-19,4.1l-18.8,4.4l-18.8,4.6l-18.8,4.9l-18.7,5.1l-18.6,5.3l-18.6,5.5
				l-18.5,5.8l-18.4,6l-18.4,6.2l-18.2,6.5l-18.2,6.7l-18.1,7l-18,7.1l0,0c-8.2-27.7-32.4-48.1-61.7-51.1c-12-1.2-23.7,0.6-34.3,4.9
				l9.3-15.4l9.5-15.2l9.7-15.1l9.8-14.9l10.1-14.9l10.3-14.7l10.4-14.6l10.6-14.5l10.9-14.3l11-14.2l11.2-14l11.4-13.9l11.5-13.7
				l11.8-13.6l11.9-13.4l12.1-13.3l12.3-13.1l12.4-13l12.5-12.8l12.8-12.7l12.9-12.4l13.1-12.3l13.3-12.1l13.4-11.9l13.5-11.8
				l13.7-11.6l13.8-11.4l14-11.2l14.1-11l14.3-10.9l14.4-10.7l14.6-10.4l14.7-10.3l14.8-10.1l14.9-9.9l15.1-9.7l15.2-9.5l15.3-9.4
				L1724.9,343.4z"/>
			<path class="st5" d="M2155.2,573.1l16.6-8.9c88.8,77.5,163.6,171,219.7,276.4l-0.2,0.1l-18.4-5.9l-18.5-5.7l-18.6-5.5l-18.7-5.2
				l-18.7-5l-18.8-4.8l-18.8-4.5l-18.9-4.3l-19-4.1l-19-3.8l-19-3.5l-19.1-3.4l-19.1-3.1l-19.2-2.9l-19.2-2.6l-19.2-2.4l-19.3-2.1
				l-19.3-1.9l-19.3-1.6l-19.3-1.4l-19.3-1.1l-19.4-0.9l-19.4-0.7l-19.4-0.5l-19.4-0.2l-19.4,0.1l-11.5,0.2l8.6-7.6l14.3-12.3
				l14.5-12.1l14.6-11.9l14.8-11.7l14.9-11.6l15-11.4l15.2-11.2l15.4-11l15.5-10.8l15.6-10.6l15.7-10.4l15.8-10.2l16-10l16.1-9.8
				l16.3-9.6l16.4-9.4L2155.2,573.1z"/>
			<path class="st6" d="M1895.7,763.7l19.4-0.1l19.4,0.2l19.4,0.5l19.4,0.7l19.4,0.9l19.3,1.1l19.3,1.4l19.3,1.6l19.3,1.9l19.3,2.1
				l19.2,2.4l19.2,2.6l19.2,2.9l19.1,3.1l19.1,3.4l19,3.5l19,3.8l19,4.1l18.9,4.3l18.8,4.5l18.8,4.8l18.7,5l18.7,5.2l18.6,5.5
				l18.5,5.7l18.4,5.9l0.2-0.1c61.3,115.1,100.3,244.3,111,382.3c-6.8-3.3-14.7-3.6-21.7-0.9v0l-16.6,7.3l-16.7,7l-16.9,6.8
				l-16.9,6.5l-17,6.4l-17,6.2l-17.2,5.9l-17.2,5.7l-17.3,5.4l-17.3,5.2l-17.5,5l-17.5,4.7l-17.6,4.6l-10.7,2.6l-14.8-9.5l-15-9.3
				l-15.1-9.1l-15.2-8.8l-15.4-8.6l-15.5-8.3l0-0.1c55.6-39.7,91.8-104.8,91.8-178.4c0-121-98.1-219.1-219.1-219.1
				c-121,0-219.1,98.1-219.1,219.1c0,21.1,3,41.6,8.6,60.9l-16.4-2.9l-16.6-2.7l-16.6-2.4l-16.6-2.2l-16.7-2l-16.6-1.7l-16.7-1.5
				l-16.7-1.3l-16.7-1l-16.7-0.8l-16.7-0.5l-16.7-0.2l-16.7-0.1l-7.4,0.1l6.4-10.5l10-16l10.1-15.9l10.4-15.7l10.6-15.6l10.8-15.5
				l11-15.4l11.2-15.2l11.3-15.1l11.6-14.9l11.7-14.8l11.9-14.6l12.1-14.5l12.3-14.3l12.4-14.2l12.7-14l12.8-13.9l13-13.7l13.1-13.5
				l13.4-13.3l13.5-13.2l13.6-13l13.9-12.8l14-12.7l5.5-4.9L1895.7,763.7z"/>
			<path class="st5" d="M1461.5,1010.7c-23.7,10.2-50.7,9.3-73.6-2.5l0,0c-25.9-11.4-44.2-35.3-48.7-63.3v0l-8.2-58.7l0,0
				c-0.5-3.3-1.2-6.5-2.1-9.5l0,0l18-7.1l18.1-7l18.2-6.7l18.2-6.5l18.4-6.2l18.4-6l18.5-5.8l18.6-5.5l18.6-5.3l18.7-5.1l18.8-4.9
				l18.8-4.6l18.8-4.4l19-4.1l19-3.9l19-3.7l19.1-3.4l19.1-3.2l19.1-2.9l19.2-2.7l19.2-2.5l19.3-2.2l19.3-2l19.3-1.7l19.3-1.5
				l19.3-1.3l19.4-1l19.3-0.8l19.4-0.5l7.9-0.1l-5.5,4.9l-14,12.7l-13.9,12.8l-13.6,13l-13.5,13.2l-13.4,13.3l-13.1,13.5l-13,13.7
				l-12.8,13.9l-12.7,14l-12.4,14.2l-12.3,14.3l-12.1,14.5l-11.9,14.6l-11.7,14.8l-11.6,14.9l-11.3,15.1l-11.2,15.2l-11,15.4
				l-10.8,15.5l-10.6,15.6l-10.4,15.7l-10.1,15.9l-10,16l-6.4,10.5l-9.4,0.1l-16.7,0.4l-16.7,0.7l-16.7,0.9l-16.7,1.1l-16.7,1.4
				l-16.7,1.6l-16.6,1.8l-16.6,2.1l-16.6,2.3l-16.6,2.6l-16.5,2.8l-16.5,3.1l-16.4,3.2l-16.4,3.5l-16.3,3.7l-16.3,4l-16.3,4.2
				l-16.1,4.4l-16.1,4.7l-16,4.9c13.5-67.1-4.7-139.1-54.3-192.5l0,0c14.4-4.6,30.2-1.1,41.2,9.2l0,0.1l28.9,30.4h0
				c1.2,1.2,2.4,2.4,3.8,3.4l0,0C1330.6,1058.2,1408.5,1056.4,1461.5,1010.7L1461.5,1010.7z"/>
			<path class="st7" d="M1594.9,1110.9l7.4-0.1l16.7,0.1l16.7,0.2l16.7,0.5l16.7,0.8l16.7,1l16.7,1.3l16.7,1.5l16.6,1.7l16.7,2
				l16.6,2.2l16.6,2.4l16.6,2.7l16.4,2.9c26.4,91.4,110.7,158.2,210.5,158.2c47.5,0,91.4-15.1,127.3-40.7l0,0.1l15.5,8.3l15.4,8.6
				l15.2,8.8l15.1,9.1l15,9.3l14.8,9.5l-7,1.7l-17.7,4l-17.7,3.8l-17.8,3.5l-17.8,3.3l-17.9,3.1l-17.9,2.8l-17.9,2.6l-18,2.3
				l-18,2.2l-18.1,1.9l-18.1,1.7l0,0c-1.9,0.2-3.7,0.2-5.6,0.2h-0.1l-17.2-0.3l-17.3-0.6l-17.2-0.8l-17.2-1.1l-17.2-1.3l-17.2-1.6
				l-17.2-1.9l-17.1-2.1l-17.1-2.3l-17.1-2.6l-17-2.9l-13.7-3.2l-13.6-3.5l-13.6-3.8l-13.5-4l-13.4-4.3l-13.4-4.5l-13.3-4.7l-13.2-5
				l-13.1-5.2l-13-5.5l-12.9-5.6l-12.8-5.9l-12.7-6.1l-12.6-6.3l-12.5-6.6l-12.4-6.8l-12.2-7l-12.1-7.2l-11.9-7.4l-11.9-7.7
				l-37-24.6l0,0l8.9-16.6l9.2-16.5l9.4-16.4l9.6-16.3L1594.9,1110.9z"/>
			<path class="st6" d="M1585.5,1111l9.4-0.1l-3.4,5.6l-9.6,16.3l-9.4,16.4l-9.2,16.5l-8.9,16.6l0,0l-11.9-7.9l0,0
				c-8.9-5.9-20.5-5.6-29.1,0.8l0,0l-14.9,11.1l-11.7,8.9l-11.8,8.7l-12,8.5l-12.1,8.3l-12.2,8.1l-12.4,7.9l-12.5,7.7l-12.6,7.6
				l-12.7,7.3l-12.8,7.1l-13,6.8l-13,6.7l-13.2,6.5l-13.3,6.2l-13.4,6l-13.5,5.8l-13.6,5.6l-13.7,5.4l-13.7,5.2l-13.8,4.9l-13.9,4.7
				l-14,4.4l-14,4.3l-14.1,4l-14.2,3.8l-14.3,3.6l-14.3,3.4l-14.3,3.1l-14.4,2.9l-14.5,2.6l-14.5,2.5l-14.5,2.2l-14.5,2l-7.7,0.9
				l1.9-15l2.1-15v0c56.6-2.9,111.9-27.6,152.3-72.8c26.8-30,44-65.5,51.4-102.6l16-4.9l16.1-4.7l16.1-4.4l16.3-4.2l16.3-4l16.3-3.7
				l16.4-3.5l16.4-3.2l16.5-3.1l16.5-2.8l16.6-2.6l16.6-2.3l16.6-2.1l16.6-1.8l16.7-1.6l16.7-1.4l16.7-1.1l16.7-0.9l16.7-0.7
				L1585.5,1111z"/>
			<path class="st4" d="M821.6,1210.8l14.2-13.8c14.3,38.8,39.8,74,75.3,100.2c10.2,7.5,20.8,14,31.8,19.6l-12.9,8.9l-12.7,9.1
				l-12.6,9.3l-12.5,9.4l-12.4,9.7l-12.2,9.8l-2.1-0.2l-14.6-1.3l-14.6-1.6l-14.6-1.8l-14.5-2.1l-14.5-2.3l-14.5-2.5l-14.4-2.8
				l-14.4-3l-14.3-3.2l-14.2-3.4l-14.2-3.7l-4.8-1.3l12.5-15.4l12.7-15.2l13-15.1l13.1-14.9l13.3-14.8l13.5-14.6l13.7-14.4
				l13.9-14.3L821.6,1210.8z"/>
			<path class="st7" d="M1531.6,1227.3l10.2,11.8l10.4,11.7l10.5,11.5l10.7,11.4l10.9,11.2l11.1,11l11.2,10.9l11.3,10.7l11.6,10.6
				l11.7,10.3l11.9,10.2l12,10l12.1,9.8l12.4,9.6l12.4,9.5l12.6,9.2l12.7,9.1l12.9,8.8l12.9,8.7l0,0c24.9,14.3,45.4,34.9,59.4,59.5
				c-113.2-46.5-233.5-72-355.2-75.6l1.1-3.3l6.2-18l6.5-17.9l6.7-17.8l6.9-17.7l7.1-17.6l7.4-17.6l7.6-17.5l7.9-17.3l8-17.2
				l8.3-17.2l0,0L1531.6,1227.3z"/>
			<path class="st6" d="M1530.9,1228.2L1530.9,1228.2l-8.3,17.2l-8,17.2l-7.9,17.3l-7.6,17.5l-7.4,17.6l-7.1,17.6l-6.9,17.7
				l-6.7,17.8l-6.5,17.9l-6.2,18l-1.1,3.3c-35.5-1.1-71.1-0.3-106.7,2.4l6-4.5l11.6-9.1l11.5-9.2l11.3-9.4l11.2-9.7l11-9.8l10.9-10
				l10.6-10.1l10.5-10.3l10.3-10.5l10.2-10.7l10-10.9l9.8-11l9.6-11.2l9.4-11.3l9.2-11.5l9.1-11.6L1530.9,1228.2z"/>
			<path class="st6" d="M2500.5,1273c1.6-0.6,3.1-1.4,4.6-2.3c2.2,79-5.2,157.4-21.7,233.6l-11.4-12.6l-11.6-12.5l-11.8-12.2
				l-11.9-12.2l-12.1-11.9l-12.2-11.8l-12.5-11.6l-12.6-11.4l-12.8-11.2l-13-11l-13.1-10.9l-13.3-10.7l78.7-39.7L2500.5,1273
				L2500.5,1273z"/>
			<path class="st5" d="M929.9,1325.7l12.9-8.9c34.5,17.4,72.3,24.9,109.4,23.1v0l-2.1,15l-1.9,15l-6.8,0.8l-14.6,1.4l-14.6,1.3
				l-14.7,1l-14.6,0.8l-14.6,0.5l-14.7,0.3l-14.7,0.1l-14.6-0.2l-14.7-0.4l-14.6-0.6l-14.7-0.9l-12.6-1l12.2-9.8l12.4-9.7l12.5-9.4
				l12.6-9.3L929.9,1325.7z"/>
			<path class="st3" d="M558.2,1329l12.1,8.4l12.2,8.2l12.4,8.1l12.5,7.9l12.6,7.6l12.7,7.5l12.9,7.3l13,7l4.9,2.6l0,0l-10.8,14.8
				l-10.6,14.9l-10.4,15.1l-10.3,15.2l-10.1,15.3l-9.8,15.4l-9.7,15.5l-9.5,15.7l0,0C568.4,1454.8,560.2,1392.3,558.2,1329
				L558.2,1329z"/>
			<path class="st7" d="M2136.9,1650L2136.9,1650c-10.4-38.3-12.3-78.4-5.6-117.6v0c13.8-53.5,52.3-97.2,103.7-117.6l0,0l100.1-50.5
				l13.3,10.7l13.1,10.9l13,11l12.8,11.2l12.6,11.4l12.5,11.6l12.2,11.8l12.1,11.9l11.9,12.2l11.8,12.2l11.6,12.5l11.4,12.6
				c-31.1,143.4-94.4,278.8-186.1,395.4c-39.4-65.7-86.1-126.8-139.3-182l-2.6-7l-4.1-12l-4-12.1l-3.7-12.1l-3.5-12.2L2136.9,1650z"
				/>
			<path class="st4" d="M663.5,1393.6l8.2,4.3l13.2,6.6l13.3,6.5l13.4,6.2l13.5,6l13.6,5.8l13.6,5.6l13.7,5.4l13.9,5.2l4.8,1.7l0,0
				l-12.2,12.1l-11.9,12.3l-11.8,12.5l-11.6,12.7l-11.4,12.8l-11.3,13l-11,13.1l-10.9,13.3l-10.7,13.4l-10.4,13.6l-10.3,13.8
				l-10,13.9l-9.9,14l-9.7,14.2l-9.4,14.3c-16.3-42.4-29.5-86.1-39.8-130.6l0,0l9.5-15.7l9.7-15.5l9.8-15.4l10.1-15.3l10.3-15.2
				l10.4-15.1l10.6-14.9L663.5,1393.6L663.5,1393.6z"/>
			<path class="st7" d="M1221,2026.1l21.5-184l37.2,2.9v0c9,0.7,17.9-2.7,24-9.4c6.2-6.6,8.9-15.7,7.6-24.7h0l-40.4-260.3l0,0
				c-10.3-46.4,9.7-94.3,50-119.6l0,0.1l12.1-8.5l11.9-8.6l5.8-4.4c35.6-2.7,71.2-3.5,106.7-2.4l-4.9,14.8l-5.8,18.1l-5.6,18.2
				l-5.3,18.3l-5.1,18.4l-4.9,18.4l-4.6,18.5l-4.4,18.5l-4.1,18.5l-3.9,18.7l-3.7,18.7l-3.4,18.7l-3.2,18.7l-2.9,18.8l-2.7,18.8
				l-2.5,18.8l-2.2,18.9l-2,18.9l-1.7,19l-1.6,19l-1.3,19l-1,19l-0.8,19l-0.5,19l-0.3,19l-0.1,19.1l0.1,19l0.4,19l0.7,19l1,19
				l1.1,19l1.4,19l1.6,19l1.9,19l2.1,18.9l2.3,18.9l2.6,18.8l2.8,18.8l3.1,18.8l3.3,18.7l3.5,18.7l3.8,18.6l4,18.6l4.3,18.6
				l4.5,18.5l4.7,18.4c-72.2-7.7-142.9-23.4-211.1-46.7l-8.8-15.9l-8.7-16.1l-8.5-16.2l-8.3-16.3l-8-16.4l-7.9-16.5l-7.6-16.6
				l-7.4-16.7l-7.2-16.8l-6.9-16.9l-6.7-17l-6.5-17.1l-6.2-17.2l-6.1-17.2l-5.8-17.3l-5.6-17.4l-5.3-17.5l-5.2-17.6l-4.9-17.6
				l-4.6-17.7l-4.4-17.7l-4.1-17.8l-4-17.9l74.8,5.9l52,191.9h0c1.3,6.1,6.6,10.4,12.8,10.4
				C1214.3,2036.5,1219.7,2032.2,1221,2026.1L1221,2026.1z"/>
			<path class="st8" d="M1889.9,1999.1c1.7,7.3,8.1,12.4,15.6,12.4c7.4,0,13.9-5.2,15.5-12.5h0l40.5-209.3l0,0
				c1.6-17.2,12.7-32,28.7-38.5c16-6.5,34.3-3.5,47.4,7.8l0.1,0l166.6,173.7l21.1,19.2l0,0c5.4,5.5,12.9,8.4,20.6,8.1v0
				c-176,189.9-420.4,301.9-679.2,311.2c-46.5,1.7-92.7,0-138.4-4.9l-4.7-18.4l-4.5-18.5l-4.3-18.6l-4-18.6l-3.8-18.6l-3.5-18.7
				l-3.3-18.7l-3.1-18.8l-2.8-18.8l-2.6-18.8l-2.3-18.9l-2.1-18.9l-1.9-19l-1.6-19l-1.4-19l-1.1-19l-1-19l-0.7-19l-0.4-19l-0.1-19
				l0.1-19.1l0.3-19l0.5-19l0.8-19l1-19l1.3-19l1.6-19l1.7-19l2-18.9l2.2-18.9l2.5-18.8l2.7-18.8l2.9-18.8l3.2-18.7l3.4-18.7
				l3.7-18.7l3.9-18.7l4.1-18.5l4.4-18.5l4.6-18.5l4.9-18.4l5.1-18.4l5.3-18.3l5.6-18.2l5.8-18.1l4.9-14.8
				c121.7,3.6,242.1,29.1,355.2,75.6c4.1,7.2,7.7,14.7,10.6,22.5h0.1l3.7,13.4l3.5,13.4l3.3,13.6l3,13.6l2.8,13.7l2.6,13.7l2.3,13.7
				l2.2,13.8l1.9,13.8l1.7,13.8l1.4,13.9l1.2,13.9l1,13.9l0.8,13.9l0.5,13.9l0.3,13.9v13.9l1,18.7l1.2,18.7l1.4,18.7l1.6,18.7
				l1.9,18.7l2.1,18.6l2.3,18.7l2.6,18.5l2.8,18.5l3.1,18.5l3.2,18.5l3.5,18.4l3.7,18.4L1889.9,1999.1L1889.9,1999.1z"/>
			<path class="st5" d="M784.7,1446.9l9.2,3.3l14,4.7l14,4.5l14.2,4.3l0,0c14.1,5,25.6,15.4,31.9,28.9c6.3,13.6,6.9,29.1,1.7,43.1
				l0,0l-11.1,45.6l0,0c-70.1,47.5-134.1,103.6-190.3,167c-17.3-33.2-32.7-67.3-46-102.2l9.4-14.3l9.7-14.2l9.9-14l10-13.9
				l10.3-13.8l10.4-13.6l10.7-13.4l10.9-13.3l11-13.1l11.3-13l11.4-12.8l11.6-12.7l11.8-12.5l11.9-12.3L784.7,1446.9L784.7,1446.9z"
				/>
			<path class="st6" d="M840.1,1975.7c-0.9,2-1.5,4-1.9,6.1c-68.6-69.5-125.7-148.3-170.1-233.5c56.2-63.4,120.1-119.5,190.3-167
				l0,0l-46.9,192.2l-0.1,0c-2,8.4-0.3,17.3,4.8,24.3c5.1,7,13,11.5,21.6,12.2l0,0l83.6,6.6L840.1,1975.7L840.1,1975.7z"/>
			<path class="st8" d="M2267.5,1916.6L2267.5,1916.6l-44.6-69.5l-6.8-10.7l-6.5-10.9l-6.4-11l-6.1-11.1l-6-11.2l-5.7-11.3
				l-5.5-11.5l-5.3-11.5l-5-11.6l-4.9-11.8l-4.6-11.8l-1.8-4.9c53.2,55.2,99.9,116.3,139.3,182c-8.1,10.3-16.4,20.5-24.9,30.5
				C2272,1925.3,2270.3,1920.6,2267.5,1916.6z"/>
			<path class="st6" d="M1032.3,1825.4l36.2,2.9l4,17.9l4.1,17.8l4.4,17.7l4.6,17.7l4.9,17.6l5.2,17.6l5.3,17.5l5.6,17.4l5.8,17.3
				l6.1,17.2l6.2,17.2l6.5,17.1l6.7,17l6.9,16.9l7.2,16.8l7.4,16.7l7.6,16.6l7.9,16.5l8,16.4l8.3,16.3l8.5,16.2l8.7,16.1l8.8,15.9
				c-129.1-44-248.7-115.1-350.3-210c5.6-1.1,10.6-4.1,14.2-8.5l0,0l7.4-7.8L1032.3,1825.4z"/>
		</g>
		<g>
		</g>
	</g>
</g>
</svg>
